<?xml version="1.0" encoding="UTF-8" standalone="no"?>
<!DOCTYPE svg PUBLIC "-//W3C//DTD SVG 1.1//EN" "http://www.w3.org/Graphics/SVG/1.1/DTD/svg11.dtd">
<svg width="100%" height="100%" viewBox="0 0 7 5" version="1.1" xmlns="http://www.w3.org/2000/svg" xmlns:xlink="http://www.w3.org/1999/xlink" xml:space="preserve" xmlns:serif="http://www.serif.com/" style="fill-rule:evenodd;clip-rule:evenodd;stroke-linejoin:round;stroke-miterlimit:2;">
    <g transform="matrix(1.05501,0,0,1.13611,0,1.88884e-17)">
        <path d="M1.25,0.439C1.106,0.439 0.977,0.48 0.862,0.561C0.747,0.642 0.649,0.759 0.569,0.912C0.489,1.065 0.427,1.25 0.384,1.467C0.341,1.684 0.32,1.928 0.32,2.199C0.32,2.558 0.354,2.87 0.422,3.135C0.491,3.399 0.593,3.604 0.73,3.748C0.866,3.893 1.037,3.965 1.241,3.965C1.358,3.965 1.468,3.949 1.571,3.917C1.674,3.884 1.774,3.844 1.872,3.795L1.872,4.229C1.777,4.287 1.677,4.331 1.572,4.359C1.467,4.387 1.343,4.401 1.199,4.401C0.933,4.401 0.711,4.311 0.533,4.13C0.355,3.95 0.222,3.695 0.133,3.365C0.044,3.035 0,2.645 0,2.196C0,1.872 0.028,1.576 0.083,1.308C0.138,1.039 0.219,0.807 0.326,0.612C0.433,0.417 0.564,0.266 0.719,0.16C0.874,0.053 1.053,-0 1.254,-0C1.386,-0 1.514,0.021 1.636,0.064C1.759,0.107 1.87,0.169 1.968,0.249L1.847,0.671C1.764,0.608 1.672,0.554 1.573,0.508C1.473,0.462 1.366,0.439 1.25,0.439Z" style="fill:rgb(212,189,115);fill-rule:nonzero;"/>
    </g>
    <g transform="matrix(1.05501,0,0,1.13611,0,1.88884e-17)">
        <path d="M4.35,0.061L3.412,4.343L3.107,4.343L2.169,0.061L2.487,0.061L3.098,2.881C3.123,2.995 3.145,3.103 3.165,3.207C3.184,3.31 3.202,3.41 3.217,3.505C3.233,3.601 3.247,3.694 3.258,3.783C3.27,3.694 3.284,3.6 3.3,3.504C3.315,3.407 3.333,3.307 3.353,3.202C3.373,3.098 3.396,2.988 3.421,2.873L4.028,0.061L4.35,0.061Z" style="fill:rgb(212,189,115);fill-rule:nonzero;"/>
    </g>
    <g transform="matrix(1.05501,0,0,1.13611,0,1.88884e-17)">
        <path d="M5.501,0.061C5.715,0.061 5.892,0.105 6.032,0.192C6.172,0.279 6.276,0.411 6.345,0.589C6.415,0.766 6.449,0.993 6.449,1.268C6.449,1.494 6.424,1.683 6.374,1.835C6.324,1.986 6.259,2.108 6.178,2.202C6.097,2.296 6.01,2.368 5.919,2.419L6.635,4.343L6.281,4.343L5.642,2.556L5.099,2.556L5.099,4.343L4.795,4.343L4.795,0.061L5.501,0.061ZM5.483,0.492L5.099,0.492L5.099,2.135L5.513,2.135C5.726,2.135 5.883,2.064 5.984,1.921C6.084,1.778 6.135,1.569 6.135,1.291C6.135,1.001 6.081,0.795 5.975,0.674C5.868,0.552 5.704,0.492 5.483,0.492Z" style="fill:rgb(212,189,115);fill-rule:nonzero;"/>
    </g>
</svg>
