<?xml version="1.0" encoding="UTF-8" standalone="no"?>
<!DOCTYPE svg PUBLIC "-//W3C//DTD SVG 1.1//EN" "http://www.w3.org/Graphics/SVG/1.1/DTD/svg11.dtd">
<svg width="100%" height="100%" viewBox="0 0 10 10" version="1.1" xmlns="http://www.w3.org/2000/svg" xmlns:xlink="http://www.w3.org/1999/xlink" xml:space="preserve" xmlns:serif="http://www.serif.com/" style="fill-rule:evenodd;clip-rule:evenodd;stroke-linejoin:round;stroke-miterlimit:2;">
    <g transform="matrix(1.02764,0,0,1.02764,-0.13976,-0.13976)">
        <path d="M5.001,0.136C7.687,0.136 9.867,2.316 9.867,5.001C9.867,7.687 7.687,9.867 5.001,9.867C2.316,9.867 0.136,7.687 0.136,5.001C0.136,2.316 2.316,0.136 5.001,0.136ZM5.001,0.536C2.537,0.536 0.536,2.537 0.536,5.001C0.536,7.466 2.537,9.467 5.001,9.467C7.466,9.467 9.467,7.466 9.467,5.001C9.467,2.537 7.466,0.536 5.001,0.536Z" style="fill:url(#_Linear1);"/>
    </g>
    <g transform="matrix(1.02764,0,0,1.02764,-0.13976,-0.13976)">
        <path d="M4.519,6.694L5.15,6.694L5.15,7.354L4.519,7.354L4.519,6.694ZM3.449,4.152C3.449,3.695 3.578,3.327 3.836,3.049C4.094,2.771 4.449,2.631 4.899,2.631C5.316,2.631 5.65,2.75 5.901,2.988C6.151,3.227 6.277,3.531 6.277,3.901C6.277,4.125 6.231,4.307 6.139,4.447C6.047,4.586 5.861,4.792 5.582,5.063C5.379,5.259 5.247,5.426 5.187,5.562C5.126,5.699 5.096,5.9 5.096,6.167L4.531,6.167C4.531,5.864 4.567,5.621 4.639,5.435C4.711,5.25 4.869,5.038 5.112,4.799L5.366,4.548C5.442,4.476 5.503,4.401 5.55,4.323C5.635,4.186 5.677,4.043 5.677,3.895C5.677,3.687 5.615,3.507 5.491,3.355C5.368,3.203 5.163,3.127 4.877,3.127C4.524,3.127 4.279,3.258 4.144,3.52C4.068,3.666 4.024,3.877 4.014,4.152L3.449,4.152Z" style="fill:url(#_Linear2);fill-rule:nonzero;"/>
    </g>
    <defs>
        <linearGradient id="_Linear1" x1="0" y1="0" x2="1" y2="0" gradientUnits="userSpaceOnUse" gradientTransform="matrix(48.5461,0,0,48.5461,-4171.41,-1561.43)"><stop offset="0" style="stop-color:rgb(212,190,116);stop-opacity:1"/><stop offset="0.5" style="stop-color:rgb(214,195,133);stop-opacity:1"/><stop offset="1" style="stop-color:rgb(212,189,115);stop-opacity:1"/></linearGradient>
        <linearGradient id="_Linear2" x1="0" y1="0" x2="1" y2="0" gradientUnits="userSpaceOnUse" gradientTransform="matrix(53.6576,0,0,53.6576,-4609.96,-1727.89)"><stop offset="0" style="stop-color:rgb(212,190,116);stop-opacity:1"/><stop offset="0.5" style="stop-color:rgb(214,195,133);stop-opacity:1"/><stop offset="1" style="stop-color:rgb(212,189,115);stop-opacity:1"/></linearGradient>
    </defs>
</svg>
