<?xml version="1.0" encoding="UTF-8" standalone="no"?>
<!DOCTYPE svg PUBLIC "-//W3C//DTD SVG 1.1//EN" "http://www.w3.org/Graphics/SVG/1.1/DTD/svg11.dtd">
<svg width="100%" height="100%" viewBox="0 0 7 7" version="1.1" xmlns="http://www.w3.org/2000/svg" xmlns:xlink="http://www.w3.org/1999/xlink" xml:space="preserve" xmlns:serif="http://www.serif.com/" style="fill-rule:evenodd;clip-rule:evenodd;stroke-linejoin:round;stroke-miterlimit:2;">
    <g transform="matrix(1.06968,0,0,1.06839,-3.61233e-06,-1.72681e-05)">
        <path d="M3.023,0.006C2.353,0.069 1.819,0.272 1.296,0.665C1.127,0.79 0.841,1.07 0.708,1.237C0.036,2.089 -0.172,3.2 0.146,4.241C0.203,4.432 0.254,4.557 0.357,4.759C0.832,5.695 1.715,6.34 2.752,6.51C3.628,6.652 4.527,6.432 5.238,5.899C5.85,5.442 6.278,4.796 6.459,4.055C6.53,3.765 6.544,3.644 6.544,3.282C6.545,2.924 6.536,2.836 6.469,2.542C6.275,1.681 5.727,0.927 4.962,0.465C4.546,0.214 4.061,0.054 3.571,0.009C3.457,-0.001 3.117,-0.003 3.023,0.006ZM3.168,0.926L3.164,1.609L3.023,1.605C2.671,1.598 1.972,1.512 1.972,1.477C1.972,1.471 1.99,1.423 2.011,1.37C2.261,0.767 2.657,0.346 3.066,0.248C3.114,0.236 3.156,0.23 3.162,0.234C3.167,0.239 3.169,0.549 3.168,0.926ZM3.636,0.297C3.907,0.412 4.181,0.686 4.387,1.051C4.451,1.165 4.565,1.406 4.578,1.457L4.584,1.487L4.445,1.51C4.141,1.564 3.799,1.599 3.526,1.605L3.391,1.609L3.387,0.93C3.386,0.557 3.387,0.246 3.389,0.239C3.397,0.22 3.525,0.251 3.636,0.297ZM2.366,0.424C2.122,0.685 1.914,1.007 1.796,1.309C1.773,1.368 1.75,1.421 1.747,1.426C1.73,1.443 1.08,1.235 1.047,1.202C1.036,1.192 1.223,1.008 1.35,0.906C1.617,0.69 1.973,0.491 2.277,0.389C2.361,0.361 2.434,0.337 2.439,0.337C2.444,0.337 2.411,0.376 2.366,0.424ZM4.31,0.401C4.642,0.52 4.954,0.7 5.228,0.929C5.342,1.024 5.51,1.184 5.51,1.197C5.51,1.219 4.88,1.434 4.815,1.434C4.808,1.434 4.786,1.39 4.764,1.334C4.651,1.032 4.448,0.713 4.189,0.427C4.091,0.32 4.087,0.321 4.31,0.401ZM1.007,1.428C1.123,1.479 1.507,1.611 1.619,1.638C1.665,1.65 1.677,1.656 1.672,1.67C1.668,1.68 1.645,1.759 1.621,1.846C1.528,2.175 1.458,2.613 1.446,2.928C1.443,3.018 1.437,3.107 1.433,3.126L1.428,3.163L0.231,3.163L0.231,3.101C0.231,2.787 0.354,2.305 0.528,1.942C0.614,1.764 0.858,1.377 0.886,1.377C0.89,1.377 0.944,1.4 1.007,1.428ZM5.74,1.475C5.997,1.834 6.184,2.26 6.267,2.674C6.302,2.846 6.324,3.021 6.324,3.113L6.324,3.163L5.118,3.163L5.111,2.979C5.095,2.591 5.028,2.172 4.917,1.787C4.895,1.714 4.88,1.654 4.881,1.653C4.882,1.652 4.941,1.635 5.012,1.614C5.177,1.568 5.471,1.469 5.573,1.423C5.617,1.404 5.657,1.39 5.664,1.388C5.671,1.388 5.705,1.428 5.74,1.475ZM2.002,1.709C2.249,1.761 2.682,1.812 2.989,1.827L3.164,1.835L3.164,3.158L1.661,3.158L1.664,3.011C1.672,2.656 1.74,2.214 1.848,1.82C1.888,1.678 1.879,1.683 2.002,1.709ZM4.705,1.835C4.807,2.202 4.873,2.615 4.894,3.036L4.9,3.163L4.841,3.163C4.419,3.168 3.54,3.169 3.472,3.166L3.385,3.16L3.387,2.497L3.391,1.835L3.583,1.827C3.899,1.813 4.272,1.772 4.549,1.717C4.608,1.706 4.66,1.699 4.664,1.704C4.667,1.707 4.686,1.766 4.705,1.835ZM1.433,3.426C1.437,3.453 1.443,3.54 1.446,3.621C1.461,3.979 1.537,4.425 1.647,4.799L1.675,4.893L1.628,4.906C1.43,4.959 1.134,5.057 0.984,5.12C0.942,5.139 0.9,5.153 0.891,5.153C0.857,5.153 0.653,4.846 0.547,4.632C0.437,4.414 0.337,4.127 0.288,3.893C0.259,3.746 0.231,3.531 0.231,3.445L0.231,3.378L1.428,3.378L1.433,3.426ZM3.164,3.384L3.164,4.707L3.057,4.709C2.774,4.716 2.411,4.752 2.11,4.804C2.002,4.822 1.907,4.837 1.899,4.837C1.873,4.837 1.781,4.475 1.729,4.162C1.686,3.911 1.643,3.419 1.661,3.391C1.665,3.382 1.896,3.379 2.416,3.38L3.164,3.384ZM4.891,3.52C4.883,3.79 4.848,4.086 4.787,4.384C4.751,4.559 4.678,4.837 4.665,4.85C4.66,4.855 4.603,4.849 4.538,4.836C4.249,4.779 3.95,4.746 3.479,4.716L3.385,4.71L3.385,3.39L4.14,3.392L4.894,3.395L4.891,3.52ZM6.32,3.509C6.285,4.045 6.068,4.637 5.742,5.076L5.67,5.174L5.536,5.117C5.397,5.058 5.005,4.924 4.93,4.91C4.908,4.906 4.886,4.899 4.884,4.894C4.882,4.891 4.898,4.826 4.919,4.752C5.024,4.384 5.095,3.953 5.11,3.582C5.114,3.491 5.118,3.411 5.121,3.403C5.125,3.393 5.255,3.39 5.726,3.39L6.328,3.39L6.32,3.509ZM3.17,5.622C3.17,6.246 3.169,6.308 3.152,6.314C3.126,6.323 2.979,6.28 2.878,6.233C2.545,6.076 2.233,5.7 2.018,5.196C1.992,5.137 1.972,5.083 1.972,5.076C1.972,5.038 2.705,4.945 3.055,4.94L3.17,4.938L3.17,5.622ZM3.726,4.95C4.011,4.969 4.534,5.039 4.572,5.063C4.59,5.074 4.56,5.153 4.451,5.374C4.255,5.771 3.977,6.081 3.69,6.227C3.622,6.261 3.499,6.303 3.436,6.313L3.385,6.32L3.385,4.938L3.469,4.938C3.515,4.938 3.63,4.944 3.726,4.95ZM1.791,5.213C1.907,5.524 2.116,5.856 2.348,6.1C2.404,6.157 2.448,6.207 2.445,6.21C2.443,6.213 2.39,6.198 2.328,6.178C1.906,6.038 1.542,5.823 1.195,5.506C1.065,5.387 1.034,5.351 1.052,5.333C1.08,5.306 1.67,5.11 1.729,5.109C1.747,5.108 1.759,5.128 1.791,5.213ZM4.991,5.163C5.214,5.23 5.482,5.325 5.504,5.345C5.517,5.359 5.339,5.533 5.188,5.654C4.939,5.855 4.595,6.049 4.301,6.152C4.073,6.232 4.078,6.233 4.188,6.118C4.433,5.862 4.648,5.527 4.764,5.218C4.791,5.148 4.807,5.119 4.821,5.119C4.831,5.119 4.908,5.14 4.991,5.163Z" style="fill:rgb(212,189,115);fill-rule:nonzero;"/>
    </g>
</svg>
