<?xml version="1.0" encoding="UTF-8" standalone="no"?><!DOCTYPE svg PUBLIC "-//W3C//DTD SVG 1.1//EN" "http://www.w3.org/Graphics/SVG/1.1/DTD/svg11.dtd"><svg width="100%" height="100%" viewBox="0 0 10 10" version="1.1" xmlns="http://www.w3.org/2000/svg" xmlns:xlink="http://www.w3.org/1999/xlink" xml:space="preserve" xmlns:serif="http://www.serif.com/" style="fill-rule:evenodd;clip-rule:evenodd;stroke-linejoin:round;stroke-miterlimit:2;"><path d="M7.243,1.75c-0.308,0 -0.567,0.247 -0.567,0.555c0,0.308 0.259,0.555 0.567,0.555c0.308,-0 0.554,-0.247 0.554,-0.555c0,-0.308 -0.246,-0.555 -0.554,-0.555Zm-2.488,0.715c-1.294,0 -2.34,1.048 -2.34,2.342c-0,1.294 1.046,2.342 2.34,2.342c1.294,-0 2.352,-1.048 2.352,-2.342c0,-1.294 -1.058,-2.342 -2.352,-2.342Zm0,3.846c-0.826,-0 -1.491,-0.678 -1.491,-1.504c0,-0.826 0.665,-1.504 1.491,-1.504c0.838,-0 1.502,0.678 1.502,1.504c-0,0.826 -0.664,1.504 -1.502,1.504Zm4.73,-3.451c0,-1.578 -1.282,-2.86 -2.858,-2.86l-3.77,-0c-1.576,-0 -2.857,1.282 -2.857,2.86l-0,3.771c-0,1.578 1.281,2.859 2.857,2.859l3.77,0c1.576,0 2.858,-1.281 2.858,-2.859l0,-3.771Zm-0.886,3.771c-0,1.084 -0.888,1.96 -1.972,1.96l-3.77,-0c-1.084,-0 -1.958,-0.876 -1.958,-1.96l0,-3.771c0,-1.085 0.874,-1.96 1.958,-1.96l3.77,-0c1.084,-0 1.972,0.875 1.972,1.96l-0,3.771Z"/></svg>