<?xml version="1.0" encoding="UTF-8" standalone="no"?><!DOCTYPE svg PUBLIC "-//W3C//DTD SVG 1.1//EN" "http://www.w3.org/Graphics/SVG/1.1/DTD/svg11.dtd"><svg width="100%" height="100%" viewBox="0 0 31 31" version="1.1" xmlns="http://www.w3.org/2000/svg" xmlns:xlink="http://www.w3.org/1999/xlink" xml:space="preserve" xmlns:serif="http://www.serif.com/" style="fill-rule:evenodd;clip-rule:evenodd;stroke-linejoin:round;stroke-miterlimit:2;"><path id="path14" d="M0,2.216c0,-1.224 1.017,-2.216 2.272,-2.216l26.197,0c1.255,0 2.272,0.992 2.272,2.216l-0,26.504c-0,1.224 -1.017,2.216 -2.272,2.216l-26.197,-0c-1.255,-0 -2.272,-0.992 -2.272,-2.216l-0,-26.504Z" style="fill:#141414;fill-rule:nonzero;"/><path id="path28" d="M9.319,25.897l-0,-13.97l-4.644,0l0,13.97l4.644,-0Zm-2.322,-15.877c1.619,0 2.627,-1.073 2.627,-2.413c-0.03,-1.371 -1.008,-2.414 -2.596,-2.414c-1.589,0 -2.627,1.043 -2.627,2.414c-0,1.34 1.007,2.413 2.566,2.413l0.03,0Z" style="fill:#f6f6f6;"/><path id="path30" d="M11.888,25.897l4.643,-0l-0,-7.801c-0,-0.418 0.03,-0.835 0.153,-1.133c0.335,-0.835 1.099,-1.699 2.382,-1.699c1.68,0 2.352,1.281 2.352,3.159l0,7.474l4.643,-0l-0,-8.01c-0,-4.291 -2.291,-6.288 -5.346,-6.288c-2.504,0 -3.604,1.401 -4.215,2.354l0.031,0l-0,-2.026l-4.643,0c0.061,1.311 -0,13.97 -0,13.97l-0,-0Z" style="fill:#f6f6f6;"/></svg>