<?xml version="1.0" encoding="UTF-8" standalone="no"?>
<!DOCTYPE svg PUBLIC "-//W3C//DTD SVG 1.1//EN" "http://www.w3.org/Graphics/SVG/1.1/DTD/svg11.dtd">
<svg width="100%" height="100%" viewBox="0 0 21 30" version="1.1" xmlns="http://www.w3.org/2000/svg" xmlns:xlink="http://www.w3.org/1999/xlink" xml:space="preserve" xmlns:serif="http://www.serif.com/" style="fill-rule:evenodd;clip-rule:evenodd;stroke-linejoin:round;stroke-miterlimit:2;">
    <g transform="matrix(4.16667,0,0,4.16667,0,0)">
        <g transform="matrix(1.06831,0,0,1.06831,0.306193,0.000106955)">
            <path d="M1.889,0.003C1.717,0.024 1.625,0.039 1.524,0.067C0.832,0.253 0.286,0.784 0.083,1.47C-0.08,2.018 -0.004,2.666 0.322,3.53C0.623,4.327 1.176,5.336 1.84,6.296C2.024,6.563 2.045,6.581 2.104,6.529C2.136,6.503 2.298,6.249 2.546,5.839C2.89,5.268 3.095,4.894 3.361,4.356C3.769,3.533 3.995,2.913 4.086,2.377C4.114,2.207 4.114,1.896 4.086,1.722C3.941,0.848 3.241,0.152 2.375,0.021C2.273,0.006 1.963,-0.006 1.889,0.003ZM2.352,1.197C2.51,1.249 2.594,1.304 2.727,1.436C2.862,1.569 2.934,1.696 2.978,1.878C3.014,2.02 3.008,2.249 2.964,2.377C2.823,2.791 2.478,3.045 2.055,3.045C1.632,3.045 1.287,2.791 1.146,2.377C1.102,2.249 1.096,2.02 1.132,1.878C1.176,1.696 1.248,1.569 1.383,1.436C1.511,1.308 1.597,1.252 1.737,1.203C1.871,1.157 1.928,1.149 2.093,1.154C2.215,1.158 2.26,1.165 2.352,1.197Z" style="fill:rgb(212,189,115);fill-rule:nonzero;"/>
        </g>
    </g>
</svg>
