<?xml version="1.0" encoding="UTF-8" standalone="no"?><!DOCTYPE svg PUBLIC "-//W3C//DTD SVG 1.1//EN" "http://www.w3.org/Graphics/SVG/1.1/DTD/svg11.dtd"><svg width="100%" height="100%" viewBox="0 0 7 7" version="1.1" xmlns="http://www.w3.org/2000/svg" xmlns:xlink="http://www.w3.org/1999/xlink" xml:space="preserve" xmlns:serif="http://www.serif.com/" style="fill-rule:evenodd;clip-rule:evenodd;stroke-linejoin:round;stroke-miterlimit:2;"><path d="M1.235,0.01c-0.067,0.018 -0.169,0.079 -0.244,0.146c-0.015,0.013 -0.045,0.039 -0.066,0.058c-0.023,0.018 -0.067,0.057 -0.1,0.085c-0.033,0.028 -0.086,0.072 -0.118,0.098c-0.069,0.056 -0.189,0.177 -0.245,0.249c-0.023,0.028 -0.044,0.055 -0.049,0.059c-0.012,0.013 -0.126,0.186 -0.147,0.224c-0.107,0.193 -0.191,0.42 -0.227,0.616c-0.029,0.164 -0.039,0.274 -0.039,0.435c0,0.331 0.069,0.689 0.197,1.014c0.016,0.042 0.03,0.079 0.03,0.083c-0,0.006 0.029,0.073 0.087,0.2c0.053,0.117 0.175,0.348 0.239,0.453c0.077,0.125 0.15,0.241 0.201,0.317c0.055,0.081 0.082,0.117 0.194,0.269c0.051,0.069 0.209,0.269 0.238,0.303c0.014,0.015 0.037,0.042 0.052,0.061c0.132,0.163 0.319,0.367 0.521,0.568c0.184,0.184 0.193,0.192 0.306,0.294c0.134,0.12 0.362,0.301 0.495,0.393c0.018,0.013 0.053,0.037 0.078,0.054c0.025,0.018 0.063,0.043 0.085,0.056c0.021,0.013 0.057,0.036 0.08,0.05c0.023,0.015 0.057,0.035 0.075,0.045c0.02,0.01 0.065,0.036 0.103,0.056c0.159,0.089 0.37,0.18 0.531,0.232c0.065,0.021 0.19,0.057 0.214,0.061c0.01,0.002 0.055,0.011 0.102,0.021c0.123,0.025 0.178,0.032 0.33,0.039c0.088,0.004 0.176,0.004 0.253,-0c0.135,-0.008 0.186,-0.015 0.295,-0.039c0.043,-0.01 0.092,-0.02 0.107,-0.023c0.015,-0.003 0.055,-0.015 0.088,-0.027c0.033,-0.011 0.072,-0.024 0.085,-0.028c0.059,-0.017 0.272,-0.12 0.358,-0.175c0.131,-0.081 0.19,-0.126 0.326,-0.25c0.034,-0.03 0.117,-0.105 0.185,-0.166c0.085,-0.075 0.137,-0.126 0.165,-0.164c0.184,-0.249 0.097,-0.502 -0.294,-0.856c-0.35,-0.316 -0.522,-0.448 -0.706,-0.541c-0.086,-0.043 -0.122,-0.057 -0.188,-0.073c-0.161,-0.04 -0.309,-0.024 -0.444,0.047c-0.036,0.019 -0.077,0.045 -0.093,0.057c-0.026,0.021 -0.16,0.133 -0.167,0.141c-0.002,0.002 -0.028,0.024 -0.058,0.051c-0.03,0.026 -0.093,0.086 -0.139,0.135c-0.095,0.098 -0.144,0.137 -0.21,0.171c-0.061,0.029 -0.077,0.035 -0.14,0.045c-0.153,0.024 -0.354,-0.041 -0.559,-0.18c-0.033,-0.023 -0.071,-0.049 -0.085,-0.058c-0.022,-0.014 -0.155,-0.125 -0.218,-0.181c-0.104,-0.091 -0.396,-0.396 -0.459,-0.478c-0.008,-0.01 -0.032,-0.041 -0.056,-0.068c-0.083,-0.098 -0.125,-0.151 -0.202,-0.254c-0.082,-0.111 -0.148,-0.207 -0.148,-0.215c-0,-0.003 -0.007,-0.015 -0.016,-0.026c-0.081,-0.109 -0.188,-0.342 -0.227,-0.492c-0.016,-0.064 -0.019,-0.086 -0.018,-0.173c0.001,-0.087 0.003,-0.104 0.018,-0.151c0.045,-0.134 0.096,-0.192 0.304,-0.339c0.058,-0.041 0.309,-0.261 0.35,-0.307c0.167,-0.184 0.206,-0.408 0.118,-0.68c-0.028,-0.087 -0.108,-0.26 -0.162,-0.347c-0.063,-0.104 -0.08,-0.132 -0.214,-0.341c-0.213,-0.332 -0.385,-0.503 -0.554,-0.554c-0.047,-0.013 -0.167,-0.013 -0.218,0Z" style="fill:#d4bd73;fill-rule:nonzero;"/></svg>