<?xml version="1.0" encoding="UTF-8" standalone="no"?>
<!DOCTYPE svg PUBLIC "-//W3C//DTD SVG 1.1//EN" "http://www.w3.org/Graphics/SVG/1.1/DTD/svg11.dtd">
<svg width="100%" height="100%" viewBox="0 0 30 30" version="1.1" xmlns="http://www.w3.org/2000/svg" xmlns:xlink="http://www.w3.org/1999/xlink" xml:space="preserve" xmlns:serif="http://www.serif.com/" style="fill-rule:evenodd;clip-rule:evenodd;stroke-linejoin:round;stroke-miterlimit:2;">
    <g transform="matrix(4.16667,0,0,4.16667,0,0)">
        <g transform="matrix(1.06842,0,0,1.06842,0.234681,-0.000267104)">
            <path d="M1.235,0.01C1.168,0.028 1.066,0.089 0.991,0.156C0.976,0.169 0.946,0.195 0.925,0.214C0.902,0.232 0.858,0.271 0.825,0.299C0.792,0.327 0.739,0.371 0.707,0.397C0.638,0.453 0.518,0.574 0.462,0.646C0.439,0.674 0.418,0.701 0.413,0.705C0.401,0.718 0.287,0.891 0.266,0.929C0.159,1.122 0.075,1.349 0.039,1.545C0.01,1.709 0,1.819 0,1.98C0,2.311 0.069,2.669 0.197,2.994C0.213,3.036 0.227,3.073 0.227,3.077C0.227,3.083 0.256,3.15 0.314,3.277C0.367,3.394 0.489,3.625 0.553,3.73C0.63,3.855 0.703,3.971 0.754,4.047C0.809,4.128 0.836,4.164 0.948,4.316C0.999,4.385 1.157,4.585 1.186,4.619C1.2,4.634 1.223,4.661 1.238,4.68C1.37,4.843 1.557,5.047 1.759,5.248C1.943,5.432 1.952,5.44 2.065,5.542C2.199,5.662 2.427,5.843 2.56,5.935C2.578,5.948 2.613,5.972 2.638,5.989C2.663,6.007 2.701,6.032 2.723,6.045C2.744,6.058 2.78,6.081 2.803,6.095C2.826,6.11 2.86,6.13 2.878,6.14C2.898,6.15 2.943,6.176 2.981,6.196C3.14,6.285 3.351,6.376 3.512,6.428C3.577,6.449 3.702,6.485 3.726,6.489C3.736,6.491 3.781,6.5 3.828,6.51C3.951,6.535 4.006,6.542 4.158,6.549C4.246,6.553 4.334,6.553 4.411,6.549C4.546,6.541 4.597,6.534 4.706,6.51C4.749,6.5 4.798,6.49 4.813,6.487C4.828,6.484 4.868,6.472 4.901,6.46C4.934,6.449 4.973,6.436 4.986,6.432C5.045,6.415 5.258,6.312 5.344,6.257C5.475,6.176 5.534,6.131 5.67,6.007C5.704,5.977 5.787,5.902 5.855,5.841C5.94,5.766 5.992,5.715 6.02,5.677C6.204,5.428 6.117,5.175 5.726,4.821C5.376,4.505 5.204,4.373 5.02,4.28C4.934,4.237 4.898,4.223 4.832,4.207C4.671,4.167 4.523,4.183 4.388,4.254C4.352,4.273 4.311,4.299 4.295,4.311C4.269,4.332 4.135,4.444 4.128,4.452C4.126,4.454 4.1,4.476 4.07,4.503C4.04,4.529 3.977,4.589 3.931,4.638C3.836,4.736 3.787,4.775 3.721,4.809C3.66,4.838 3.644,4.844 3.581,4.854C3.428,4.878 3.227,4.813 3.022,4.674C2.989,4.651 2.951,4.625 2.937,4.616C2.915,4.602 2.782,4.491 2.719,4.435C2.615,4.344 2.323,4.039 2.26,3.957C2.252,3.947 2.228,3.916 2.204,3.889C2.121,3.791 2.079,3.738 2.002,3.635C1.92,3.524 1.854,3.428 1.854,3.42C1.854,3.417 1.847,3.405 1.838,3.394C1.757,3.285 1.65,3.052 1.611,2.902C1.595,2.838 1.592,2.816 1.593,2.729C1.594,2.642 1.596,2.625 1.611,2.578C1.656,2.444 1.707,2.386 1.915,2.239C1.973,2.198 2.224,1.978 2.265,1.932C2.432,1.748 2.471,1.524 2.383,1.252C2.355,1.165 2.275,0.992 2.221,0.905C2.158,0.801 2.141,0.773 2.007,0.564C1.794,0.232 1.622,0.061 1.453,0.01C1.406,-0.003 1.286,-0.003 1.235,0.01Z" style="fill:rgb(212,189,115);fill-rule:nonzero;"/>
        </g>
    </g>
</svg>
