<?xml version="1.0" encoding="UTF-8" standalone="no"?>
<!DOCTYPE svg PUBLIC "-//W3C//DTD SVG 1.1//EN" "http://www.w3.org/Graphics/SVG/1.1/DTD/svg11.dtd">
<svg width="100%" height="100%" viewBox="0 0 34 30" version="1.1" xmlns="http://www.w3.org/2000/svg" xmlns:xlink="http://www.w3.org/1999/xlink" xml:space="preserve" xmlns:serif="http://www.serif.com/" style="fill-rule:evenodd;clip-rule:evenodd;stroke-linejoin:round;stroke-miterlimit:2;">
    <g transform="matrix(4.16667,0,0,4.16667,0,0)">
        <g id="heart" transform="matrix(1,0,0,1,0.318,0.0809037)">
            <path d="M0,1.959C0,-0.131 2.455,-0.828 3.682,1.262C4.909,-0.828 7.364,-0.131 7.364,1.959C7.364,3.353 6.137,4.98 3.682,6.838C1.227,4.98 0,3.353 0,1.959ZM0.6,1.959C0.6,2.548 0.881,3.176 1.399,3.863C1.924,4.559 2.687,5.296 3.682,6.08C4.677,5.296 5.44,4.559 5.965,3.863C6.483,3.176 6.764,2.548 6.764,1.959C6.764,1.245 6.375,0.747 5.85,0.628C5.291,0.501 4.647,0.804 4.2,1.566C4.092,1.75 3.895,1.862 3.682,1.862C3.469,1.862 3.272,1.75 3.165,1.566C2.717,0.804 2.073,0.501 1.514,0.628C0.989,0.747 0.6,1.245 0.6,1.959Z" style="fill:rgb(102,102,102);"/>
        </g>
    </g>
</svg>
