<?xml version="1.0" encoding="UTF-8" standalone="no"?>
<!DOCTYPE svg PUBLIC "-//W3C//DTD SVG 1.1//EN" "http://www.w3.org/Graphics/SVG/1.1/DTD/svg11.dtd">
<svg width="100%" height="100%" viewBox="0 0 35 35" version="1.1" xmlns="http://www.w3.org/2000/svg" xmlns:xlink="http://www.w3.org/1999/xlink" xml:space="preserve" xmlns:serif="http://www.serif.com/" style="fill-rule:evenodd;clip-rule:evenodd;stroke-linecap:round;stroke-linejoin:round;stroke-miterlimit:1.5;">
    <g transform="matrix(1,0,0,1,0.361,0)">
        <path d="M10.081,24.558L0.639,34" style="fill:none;stroke:rgb(51,51,51);stroke-width:1.28px;"/>
    </g>
    <g transform="matrix(1,0,0,1,0.361,0)">
        <path d="M20.252,-0C28.192,-0 34.639,6.446 34.639,14.387C34.639,22.327 28.192,28.773 20.252,28.773C12.312,28.773 5.865,22.327 5.865,14.387C5.865,6.446 12.312,0 20.252,0ZM20.252,1.278C13.017,1.278 7.143,7.152 7.143,14.387C7.143,21.622 13.017,27.496 20.252,27.496C27.487,27.496 33.361,21.622 33.361,14.387C33.361,7.152 27.487,1.278 20.252,1.278Z" style="fill:rgb(51,51,51);"/>
    </g>
</svg>
