<?xml version="1.0" encoding="UTF-8" standalone="no"?>
<!DOCTYPE svg PUBLIC "-//W3C//DTD SVG 1.1//EN" "http://www.w3.org/Graphics/SVG/1.1/DTD/svg11.dtd">
<svg width="100%" height="100%" viewBox="0 0 2560 1340" version="1.1" xmlns="http://www.w3.org/2000/svg" xmlns:xlink="http://www.w3.org/1999/xlink" xml:space="preserve" xmlns:serif="http://www.serif.com/" style="fill-rule:evenodd;clip-rule:evenodd;stroke-linejoin:round;stroke-miterlimit:2;">
    <g transform="matrix(0.996497,0,0,0.996296,1.03029e-13,6.12843e-14)">
        <rect x="0" y="0" width="2569" height="1350" style="fill:rgb(23,28,36);"/>
    </g>
    <g transform="matrix(2.22372,0,0,0.80542,-42519.4,-5684.31)">
        <path d="M19237.6,7063.78L19245.3,7063.78C19345.6,7074.21 19448.8,7098.35 19547.1,7121.35C19651.5,7145.78 19750.2,7168.86 19833.8,7172.75C19979.8,7179.54 20126.3,7178.29 20272.1,7172.94L20272.1,7173.72C20126.3,7179.07 19979.8,7180.32 19833.8,7173.53C19750.2,7169.64 19651.5,7146.55 19547,7122.11C19446.2,7098.54 19340.2,7073.75 19237.6,7063.78ZM19120.9,7127.87L19120.9,7127.09C19125.7,7127.24 19130.5,7127.43 19135.5,7127.65C19286.4,7134.64 19464.8,7177.1 19615.3,7214.83C19707.7,7214.75 19799.1,7213.88 19889.6,7212.21C20017.8,7209.85 20145.5,7205.88 20272.1,7200.3L20272.1,7201.07C20145.5,7206.65 20017.8,7210.63 19889.6,7212.99C19800.1,7214.63 19709.7,7215.5 19618.4,7215.6C19630.5,7218.62 19642.3,7221.62 19654,7224.56C19767.8,7253.24 19866.1,7278.02 19918.5,7278.33C20031.3,7279.02 20148.3,7276.44 20272.1,7270.49L20272.1,7271.28C20148.3,7277.22 20031.3,7279.8 19918.5,7279.11C19866.1,7278.79 19767.7,7254.01 19653.9,7225.32C19641.2,7222.13 19628.4,7218.89 19615.3,7215.6C19452.8,7215.74 19287.6,7213.43 19120.9,7208.68L19120.9,7207.91C19282.9,7212.52 19443.4,7214.83 19601.4,7214.83L19612.2,7214.83C19462.3,7177.29 19285.3,7135.36 19135.4,7128.43C19130.5,7128.2 19125.7,7128.02 19120.9,7127.87ZM19120.9,7275.92L19120.9,7275.14C19206.8,7269.85 19295.5,7264.57 19383,7268.15C19460.6,7271.31 19539,7279.05 19614.9,7286.53C19737.6,7298.64 19864.5,7311.15 19990.3,7304.57C20084.1,7299.67 20178.8,7297.55 20272.1,7296.24L20272.1,7297.01C20178.8,7298.32 20084.2,7300.44 19990.4,7305.34C19864.5,7311.92 19737.6,7299.41 19614.9,7287.31C19539,7279.82 19460.5,7272.08 19383,7268.92C19295.5,7265.35 19206.8,7270.62 19120.9,7275.92ZM19120.9,7295.84L19120.9,7295.07C19158.3,7294.84 19199,7295.26 19243,7296.32C19460.9,7301.58 19706.1,7321.3 19852.6,7333.08C19909.4,7337.65 19950.4,7340.95 19968.2,7341.64C20051.1,7344.9 20134.7,7343.75 20215.5,7342.63C20234.3,7342.37 20253.2,7342.11 20272.1,7341.9L20272.1,7342.68C20253.2,7342.89 20234.3,7343.15 20215.5,7343.41C20134.7,7344.53 20051.1,7345.68 19968.2,7342.42C19950.4,7341.72 19909.4,7338.42 19852.6,7333.86C19706.1,7322.08 19460.8,7302.36 19243,7297.09C19199,7296.03 19158.3,7295.61 19120.9,7295.84ZM19120.9,7382.85L19120.9,7382.07C19153,7376.96 19185.3,7371.03 19217.4,7365.13C19316.7,7346.89 19410.5,7329.66 19492.9,7336.42C19538.5,7340.16 19583.4,7344.63 19626.8,7348.95C19783,7364.5 19930.6,7379.2 20092.2,7359.08C20151.4,7351.7 20211.7,7351.34 20272.1,7354.63L20272.1,7355.41C20211.7,7352.12 20151.4,7352.48 20092.2,7359.85C19930.6,7379.98 19783,7365.28 19626.7,7349.72C19583.3,7345.4 19538.5,7340.93 19492.9,7337.19C19410.5,7330.45 19316.8,7347.66 19217.5,7365.9C19185.4,7371.8 19153,7377.74 19120.9,7382.85ZM19120.9,7385.36L19120.9,7384.58C19239.1,7368.78 19360.8,7356.12 19484.5,7376.33C19695.1,7410.71 19853.7,7425.65 20041.3,7400.29C20113.4,7390.53 20192.2,7384.34 20272.1,7382.04L20272.1,7382.82C20192.2,7385.12 20113.5,7391.31 20041.4,7401.06C19853.7,7426.43 19695.1,7411.49 19484.5,7377.09C19360.8,7356.89 19239.1,7369.56 19120.9,7385.36ZM19120.9,7440.68L19120.9,7439.9C19126.8,7439.3 19132.7,7438.72 19138.6,7438.19C19147.2,7436.54 19155.8,7434.87 19164.4,7433.2C19244.2,7417.72 19319.5,7403.09 19378.2,7410.33C19449.9,7419.18 19518.4,7433.66 19584.6,7447.66C19729.3,7478.26 19866,7507.15 20022.6,7477.34C20109.5,7460.79 20191.1,7457.5 20272.1,7461.54L20272.1,7462.32C20191.1,7458.28 20109.6,7461.56 20022.7,7478.1C19866,7507.94 19729.2,7479.03 19584.5,7448.42C19518.3,7434.43 19449.8,7419.95 19378.1,7411.11C19319.5,7403.87 19244.2,7418.49 19164.5,7433.97C19158.4,7435.15 19152.2,7436.35 19146.1,7437.54C19148.3,7437.35 19150.4,7437.17 19152.6,7436.99C19277.4,7426.96 19390.5,7434.29 19498.4,7459.43C19542.9,7469.78 19586.8,7484.96 19629.2,7499.63C19699.4,7523.94 19772.1,7549.08 19847.9,7552.09C19917.4,7554.84 19985.8,7537.05 20052,7519.85C20101.9,7506.86 20153.6,7493.42 20205.4,7488.96C20227.5,7487.05 20249.8,7486.22 20272.1,7486.26L20272.1,7487.03C20249.8,7486.99 20227.5,7487.82 20205.4,7489.73C20153.7,7494.19 20102,7507.62 20052.1,7520.61C19985.9,7537.82 19917.5,7555.63 19847.9,7552.86C19772,7549.85 19699.3,7524.7 19629,7500.38C19586.6,7485.71 19542.8,7470.54 19498.3,7460.19C19390.5,7435.07 19277.4,7427.74 19152.7,7437.77C19148,7438.14 19143.3,7438.54 19138.6,7438.96C19132.7,7440.1 19126.8,7441.22 19120.9,7442.32L19120.9,7441.54C19124.1,7440.93 19127.3,7440.32 19130.6,7439.71C19127.4,7440.02 19124.1,7440.34 19120.9,7440.68ZM19120.9,7490.96L19120.9,7490.18C19154.3,7488.14 19187.5,7486.69 19220.9,7486.69C19239.3,7486.69 19257.8,7487.14 19276.4,7488.18C19296.7,7488.55 19316.7,7489.75 19336.4,7491.76C19397.6,7498.04 19455,7512.07 19511.9,7534.65C19584.8,7563.6 19645.7,7587.1 19704.6,7603.64C19720.3,7606.94 19735.8,7609.67 19751.1,7611.85C19829.4,7622.98 19908.2,7620.05 19992,7602.9C20065.1,7587.92 20137.9,7581.29 20210.1,7579.57C20230.3,7577.71 20250.9,7576.31 20272.1,7575.38L20272.1,7576.16C20254.9,7576.91 20238.1,7577.97 20221.6,7579.33C20238.5,7579.05 20255.3,7579.03 20272.1,7579.22L20272.1,7579.99C20251.5,7579.76 20230.8,7579.85 20210.1,7580.34C20152.4,7585.68 20098.7,7594.9 20048,7608.12C19951.8,7633.23 19864.9,7637.26 19774.8,7620.81C19751.2,7616.51 19728,7611.02 19704.5,7604.4C19646.8,7592.27 19585.7,7572.33 19515.8,7543.01C19431.8,7507.77 19353.3,7493.27 19276.4,7488.96C19240,7488.29 19202.4,7490.28 19162.6,7494.94C19148.7,7496.57 19134.8,7498.5 19120.9,7500.69L19120.9,7499.91C19134.8,7497.72 19148.6,7495.8 19162.6,7494.17C19195.3,7490.33 19226.7,7488.3 19257,7488.08C19211.5,7486.49 19166.4,7488.18 19120.9,7490.96ZM19120.9,7563.65L19120.9,7562.86C19212.6,7528.11 19306.7,7498.72 19398.1,7552.9C19408.3,7558.94 19418.3,7564.89 19428.1,7570.73C19533.2,7633.33 19616.2,7682.77 19705.4,7707.26C19799.3,7733.03 19891.3,7728.21 20002.8,7691.51C20015.1,7686.38 20027.5,7681.15 20040,7675.89C20054.6,7669.71 20068.8,7664.49 20082.6,7660.12C20141.1,7635.29 20201.4,7610.5 20258,7617.01C20262.7,7617.55 20267.4,7618.27 20272.1,7619.17L20272.1,7619.95C20267.4,7619.05 20262.7,7618.32 20257.9,7617.78C20203.6,7611.54 20145.9,7634.19 20089.6,7657.99C20157.3,7637.81 20215.7,7638.39 20272.1,7648.96L20272.1,7649.75C20213.8,7638.81 20153.4,7638.55 20082.8,7660.88C20081.1,7661.57 20079.5,7662.25 20077.9,7662.94C20054.6,7672.87 20032.5,7682.24 20011,7689.54C20008.3,7690.47 20005.6,7691.37 20002.9,7692.25C19916.8,7728.16 19834.5,7759.51 19753.9,7766.92C19706.6,7771.26 19662.2,7767.26 19618,7754.68C19570.1,7741.02 19522.5,7717.34 19472.5,7682.28C19367,7608.34 19263,7570.75 19154.5,7567.36C19143.4,7567.02 19132.2,7567.04 19120.9,7567.42L19120.9,7566.64C19132.2,7566.25 19143.4,7566.24 19154.5,7566.59C19263.1,7569.98 19367.2,7607.59 19472.8,7681.59C19522.7,7716.62 19570.3,7740.28 19618.2,7753.92C19662.3,7766.49 19706.6,7770.48 19753.9,7766.15C19831.7,7758.99 19911.1,7729.47 19994.1,7695.09C19886.5,7729.22 19796.8,7733.14 19705.3,7708.02C19616,7683.51 19533,7634.05 19427.8,7571.44C19418,7565.6 19408,7559.65 19397.9,7553.62C19306.6,7499.51 19212.5,7528.93 19120.9,7563.65ZM19120.9,7614.52L19120.9,7613.74C19165,7609.41 19211.5,7611.29 19259.4,7619.37C19309.4,7627.8 19362.7,7643.29 19417.7,7665.39C19456.9,7681.15 19494.4,7703.45 19530.6,7725.01C19587.3,7758.73 19645.9,7793.61 19710.6,7802.35C19797.5,7814.1 19873.7,7780.73 19954.4,7745.41C19979.8,7734.32 20005.9,7722.86 20032.3,7713C20101.6,7687.12 20163.3,7679.16 20226.5,7687.98C20241.9,7690.11 20257,7693.16 20272.1,7696.95L20272.1,7697.74C20257,7693.95 20241.8,7690.89 20226.5,7688.75C20163.3,7679.94 20101.7,7687.89 20032.5,7713.75C20006.1,7723.61 19979.9,7735.07 19954.6,7746.15C19873.8,7781.5 19797.6,7814.89 19710.6,7803.12C19645.8,7794.37 19587.1,7759.47 19530.4,7725.71C19494.2,7704.16 19456.7,7681.88 19417.5,7666.14C19362.6,7644.04 19309.3,7628.57 19259.3,7620.14C19211.4,7612.06 19165,7610.18 19120.9,7614.52ZM19120.9,7627.59L19120.9,7626.81C19123.6,7626.73 19126.4,7626.68 19129.1,7626.66C19174.7,7626.47 19218.1,7636.28 19261.8,7656.75C19306.9,7677.9 19352.9,7710.63 19402.5,7756.81C19444.7,7796.11 19488.2,7823.1 19535.7,7839.34C19578,7853.83 19622.6,7859.37 19671.8,7856.27C19763.4,7850.52 19858.5,7814.78 19950.4,7780.23C19984.6,7767.36 20020,7754.05 20055,7742.38C20130.5,7717.14 20201.7,7714.44 20272.1,7722.21L20272.1,7722.99C20201.7,7715.22 20130.6,7717.91 20055.1,7743.13C20020.2,7754.8 19984.8,7768.11 19950.5,7780.98C19858.6,7815.54 19763.5,7851.28 19671.8,7857.04C19622.5,7860.14 19578,7854.6 19535.6,7840.09C19488,7823.83 19444.4,7796.8 19402.2,7757.45C19352.6,7711.31 19306.7,7678.61 19261.6,7657.48C19218,7637.04 19174.6,7627.19 19129.1,7627.43C19126.4,7627.44 19123.6,7627.5 19120.9,7627.59ZM19120.9,7642.07L19120.9,7641.3C19155.3,7641.61 19184.4,7652 19211.9,7673.55C19239.2,7695.05 19261.4,7724.97 19284.9,7756.66C19308.4,7788.31 19332.7,7821.04 19364.4,7848.69C19400.9,7880.53 19441.9,7902.2 19486.2,7913.12C19525.9,7922.91 19568.5,7924.55 19616.4,7918.12C19704.9,7906.25 19794.8,7868.89 19881.7,7832.77C19930.2,7812.64 19975.9,7793.63 20019.8,7779.65C20065.6,7765.05 20111.8,7756.84 20160.9,7754.53C20196.5,7752.87 20233.1,7754.36 20272.1,7759.09L20272.1,7759.86C20233.1,7755.13 20196.5,7753.65 20160.9,7755.31C20111.8,7757.61 20065.7,7765.82 20019.9,7780.4C19976.1,7794.38 19930.3,7813.39 19881.9,7833.51C19794.9,7869.64 19705,7907.01 19616.5,7918.89C19568.5,7925.32 19525.9,7923.68 19486.1,7913.88C19441.7,7902.95 19400.7,7881.23 19364.1,7849.35C19332.3,7821.65 19308,7788.89 19284.5,7757.21C19261,7725.56 19238.9,7695.67 19211.6,7674.22C19184.3,7652.76 19155.2,7642.4 19120.9,7642.07ZM19120.9,7701.34L19120.9,7700.56C19139.9,7702.98 19158.9,7708.42 19177.5,7717.54C19222.3,7739.46 19254.4,7783.53 19285.4,7826.15C19308.7,7858.22 19332.9,7891.37 19362.4,7915.21C19521.4,8043.7 19689.8,7959.54 19852.7,7878.14C19913.7,7847.65 19971.3,7818.85 20028.4,7800.74C20071.6,7787 20112.1,7781.33 20150.8,7781.33C20190.5,7777.49 20231.1,7779.06 20272.1,7784.42L20272.1,7785.2C20233.8,7780.19 20195.9,7778.49 20158.8,7781.41C20197.9,7782.19 20235.3,7788.67 20272.1,7798.33L20272.1,7799.13C20232.8,7788.81 20192.9,7782.11 20150.8,7782.11C20131.2,7784.02 20111.8,7787.25 20092.7,7792.01C20006,7813.67 19922.8,7856.55 19842.3,7898.02C19779.8,7930.23 19715.1,7963.55 19649.7,7986.34C19576.4,8011.88 19509.6,8021.28 19445.6,8015.09C19358.5,8006.66 19302.9,7965.32 19238.6,7917.46C19218.4,7902.46 19197.6,7886.95 19174.5,7871.48C19156.1,7859.12 19138.3,7849.37 19120.9,7841.68L19120.9,7840.86C19138.4,7848.58 19156.3,7858.37 19174.8,7870.78C19197.8,7886.26 19218.7,7901.78 19238.9,7916.78C19303.1,7964.6 19358.6,8005.9 19445.6,8014.31C19509.6,8020.51 19576.3,8011.11 19649.6,7985.59C19715,7962.81 19779.6,7929.5 19842.1,7897.29C19922.6,7855.81 20005.8,7812.92 20092.6,7791.24C20109.1,7787.13 20125.8,7784.15 20142.7,7782.19C20106.5,7782.93 20068.7,7788.73 20028.5,7801.49C19971.4,7819.6 19913.8,7848.39 19852.9,7878.87C19750.6,7929.98 19646.1,7982.19 19543.1,7982.19C19482,7982.2 19421.4,7963.81 19362.1,7915.87C19332.5,7891.98 19308.3,7858.79 19285,7826.7C19254,7784.14 19222,7740.13 19177.3,7718.26C19158.8,7709.18 19139.9,7703.76 19120.9,7701.34ZM19120.9,7876.51L19120.9,7875.65C19155.8,7898.22 19190.1,7926.15 19223.9,7953.57C19276.6,7996.5 19331.2,8040.89 19387.7,8064.94C19421.4,8079.28 19455.6,8086.11 19492.4,8085.84C19525.2,8085.59 19559.2,8079.67 19596.4,8067.73C19602.2,8065.84 19608.1,8063.81 19614,8061.67C19645.4,8045.61 19676.4,8028.55 19707.1,8011.64C19761.1,7981.93 19816.7,7951.34 19872.8,7926.9C19935,7893.07 19998,7863.93 20060,7854.09C20131.5,7842.74 20202.2,7847.99 20272.1,7861.4L20272.1,7862.19C20202.2,7848.77 20131.5,7843.51 20060.1,7854.86C20000.6,7864.31 19940.1,7891.55 19880.4,7923.66C19886.6,7921.03 19892.8,7918.47 19899,7916.01C19972,7887.03 20038,7873.61 20100.7,7874.93C20151.7,7876.02 20203.2,7888.74 20258.3,7913.82C20262.9,7915.91 20267.5,7918.08 20272.1,7920.31L20272.1,7921.13C20267.5,7918.88 20262.9,7916.68 20258.2,7914.56C20203.1,7889.5 20151.6,7876.79 20100.7,7875.71C20038.1,7874.37 19972.1,7887.79 19899.2,7916.75C19890.4,7920.21 19881.7,7923.85 19873,7927.64C19849.3,7940.52 19825.8,7954.09 19802.4,7967.53C19740.9,8002.95 19677.4,8039.46 19614.2,8062.41C19537.2,8101.86 19458,8135.26 19376,8145.32C19276.3,8157.52 19197.1,8085.77 19120.9,8013.99L19120.9,8013.07C19197.2,8084.87 19276.4,8156.76 19376,8144.55C19456.1,8134.72 19533.5,8102.61 19608.8,8064.34C19604.7,8065.78 19600.6,8067.16 19596.5,8068.48C19559.3,8080.44 19525.2,8086.37 19492.4,8086.61C19455.6,8086.9 19421.3,8080.04 19387.5,8065.68C19330.9,8041.6 19276.4,7997.19 19223.6,7954.24C19189.9,7926.9 19155.7,7899.03 19120.9,7876.51ZM19120.9,8113.99L19120.9,8112.96C19153.5,8152.31 19193.1,8186.83 19247.8,8201.99C19310.5,8219.36 19379.5,8211.75 19458.7,8178.73C19528.9,8149.49 19598.8,8104.3 19666.3,8060.61C19728.4,8020.44 19787,7982.5 19844.1,7957.47C19953.4,7909.52 20055.7,7904 20166.1,7940.08C20201.7,7951.74 20236.7,7967.11 20272.1,7985.57L20272.1,7986.4C20236.7,7967.91 20201.7,7952.51 20166,7940.83C20055.7,7904.78 19953.5,7910.3 19844.3,7958.2C19825.4,7966.49 19806.3,7976.19 19787,7986.92C19805.6,7977.03 19824.1,7968.42 19842.7,7961.58C19887.3,7945.12 19930.2,7936.53 19973.9,7935.32C19977.4,7935.22 19980.9,7935.17 19984.5,7935.17C20020.1,7935.17 20055.9,7940.17 20093.4,7950.37C20154.6,7967.02 20212.6,7995.38 20272.1,8027.3L20272.1,8028.13C20212.6,7996.19 20154.5,7967.79 20093.2,7951.13C20052.1,7939.93 20013,7935.02 19973.9,7936.1C19930.3,7937.3 19887.4,7945.88 19842.8,7962.32C19771.7,7988.55 19700.3,8040.82 19631.3,8091.38C19572,8134.83 19510.6,8179.76 19448.6,8209.14C19415.2,8224.97 19384.3,8235.08 19354.3,8240.07C19320.5,8245.67 19288.7,8244.69 19257,8237.08C19214.4,8226.89 19167.6,8177.39 19120.9,8120.93L19120.9,8119.89C19167.7,8176.47 19214.6,8226.13 19257.1,8236.32C19288.7,8243.92 19320.5,8244.89 19354.2,8239.3C19384.2,8234.32 19415,8224.21 19448.4,8208.4C19510.4,8179.05 19571.7,8134.13 19631,8090.69C19665.9,8065.13 19701.5,8039.12 19737.2,8016.27C19714.1,8030.53 19690.6,8045.75 19666.6,8061.3C19599,8105.01 19529.2,8150.21 19458.9,8179.47C19379.5,8212.53 19310.5,8220.14 19247.7,8202.75C19193.1,8187.61 19153.5,8153.23 19120.9,8113.99ZM19120.9,8186.11L19120.9,8185.24C19122.4,8186.29 19123.9,8187.33 19125.4,8188.37C19211.4,8248.85 19292.7,8305.98 19327.2,8307.2C19369.4,8308.7 19413.7,8294.55 19466.6,8262.69C19513.4,8234.57 19559.5,8197.22 19608.2,8157.69C19688.9,8092.31 19772.3,8024.7 19857.9,8003.52C19955.1,7979.49 20045.4,7985.1 20142.2,8021.18C20185.8,8037.43 20228.8,8059.18 20272.1,8084.06L20272.1,8084.91C20228.7,8059.98 20185.8,8038.2 20142.1,8021.93C20045.4,7985.88 19955.1,7980.27 19858,8004.28C19772.5,8025.44 19689.1,8093.01 19608.5,8158.35C19559.7,8197.9 19513.7,8235.26 19466.9,8263.4C19413.8,8295.31 19369.4,8309.46 19327.2,8307.97C19292.6,8306.75 19211.2,8249.58 19125.1,8189.06C19123.7,8188.08 19122.3,8187.09 19120.9,8186.11ZM19120.9,8279.34L19120.9,8278.35C19140.9,8299.52 19161.6,8319.04 19183.4,8335.18C19237,8374.69 19289.9,8387.79 19345.4,8375.21C19388.5,8365.45 19432.4,8344.11 19479.7,8309.99C19521.9,8279.51 19563,8241.68 19602.8,8205.11C19687.5,8127.24 19775.1,8046.71 19882.6,8026.01C20017,8000.11 20111.1,8075.32 20210.8,8154.94C20230.9,8170.98 20251.2,8187.2 20272.1,8202.76L20272.1,8203.64C20251.1,8188.02 20230.7,8171.72 20210.5,8155.61C20110.9,8076.06 20016.8,8000.91 19882.7,8026.77C19775.4,8047.46 19687.8,8127.93 19603.1,8205.75C19563.3,8242.34 19522.2,8280.17 19479.9,8310.67C19432.6,8344.83 19388.6,8366.2 19345.5,8375.98C19331.9,8379.06 19318.5,8380.6 19305.2,8380.6C19263.9,8380.6 19223.7,8365.8 19183.2,8335.87C19161.4,8319.79 19140.8,8300.38 19120.9,8279.34ZM19120.9,8312.27L19120.9,8311.29C19142.8,8334.51 19165.4,8356.11 19188.8,8373.71C19238.1,8410.7 19284.7,8424.56 19331.5,8416.07C19372.6,8408.61 19414.2,8388.16 19458.7,8353.55C19498.5,8322.62 19537.1,8283.24 19574.5,8245.15C19658,8160.02 19744.4,8071.99 19855.4,8062.07C19907.8,8057.38 19961.3,8068.33 20018.9,8095.53C20070.4,8119.81 20120.4,8154.59 20168.9,8188.23C20202.6,8211.63 20236.8,8235.43 20272.1,8256.14L20272.1,8256.98C20236.7,8236.24 20202.4,8212.38 20168.6,8188.92C20120.2,8155.29 20070.1,8120.52 20018.7,8096.26C19961.2,8069.09 19907.8,8058.16 19855.4,8062.84C19744.6,8072.75 19658.3,8160.71 19574.8,8245.77C19537.4,8283.87 19498.8,8323.26 19459,8354.22C19414.4,8388.88 19372.7,8409.36 19331.5,8416.84C19284.7,8425.35 19237.9,8411.46 19188.5,8374.4C19165.2,8356.86 19142.7,8335.37 19120.9,8312.27ZM19120.9,8385.33L19120.9,8384.41C19133.5,8395.55 19146.2,8406 19159.1,8415.45C19212.1,8454.38 19261.9,8471.98 19311.3,8469.26C19353.5,8466.94 19396.1,8449.57 19441.6,8416.16C19482.3,8386.26 19521.9,8346.24 19560.3,8307.54C19636.9,8230.1 19716.2,8150.03 19814.7,8136.11C19878.1,8127.17 19942,8136.09 20010.2,8163.39C20071,8187.74 20129.6,8224.19 20186.3,8259.45C20214.5,8276.97 20243,8294.7 20272.1,8311.15L20272.1,8312C20242.9,8295.5 20214.3,8277.73 20186.1,8260.16C20129.4,8224.91 20070.8,8188.47 20010,8164.13C19941.9,8136.86 19878.1,8127.95 19814.8,8136.88C19716.4,8150.78 19637.2,8230.79 19560.6,8308.16C19522.3,8346.88 19482.6,8386.92 19441.9,8416.84C19396.3,8450.31 19353.6,8467.71 19311.4,8470.03C19308,8470.22 19304.7,8470.31 19301.4,8470.31C19255.2,8470.31 19208.4,8452.52 19158.8,8416.13C19146.1,8406.75 19133.4,8396.38 19120.9,8385.33ZM19120.9,8391.06L19120.9,8390.16C19160.1,8424.52 19200.5,8458.05 19241.6,8482.08C19297.4,8514.59 19349,8525.93 19399.5,8516.74C19448.9,8507.74 19486.9,8476.52 19521.4,8435.89C19522.8,8432.98 19524.2,8430.06 19525.6,8427.14C19548.8,8378.61 19572.9,8328.44 19604.7,8289.43C19612.2,8280.3 19619.9,8272.07 19627.8,8264.71C19659.9,8221.44 19697.3,8187.44 19745.4,8174.93C19764.5,8169.97 19784.3,8167.73 19804.9,8168.23C19858.8,8158.72 19912.1,8164.22 19971.2,8185.12C20029.8,8205.91 20084.8,8238.53 20143,8273.08C20175.4,8292.25 20208.8,8312.07 20242.6,8329.5C20252.7,8334.69 20262.5,8339.48 20272.1,8343.9L20272.1,8344.72C20262.4,8340.28 20252.6,8335.45 20242.4,8330.23C20208.5,8312.79 20175.1,8292.96 20142.8,8273.78C20084.6,8239.26 20029.7,8206.65 19971,8185.87C19913.5,8165.48 19861.3,8159.77 19808.8,8168.35C19843.4,8169.75 19880.4,8178.76 19920.6,8195.47C19979.1,8219.82 20038.6,8257.76 20096.1,8294.46C20141,8323.13 20186.8,8352.37 20232.4,8375.11C20240.4,8377.91 20248.4,8380.58 20256.4,8383.09C20261.7,8384.75 20266.9,8386.32 20272.1,8387.82L20272.1,8388.61C20266.9,8387.1 20261.6,8385.51 20256.3,8383.84C20250.1,8381.91 20243.9,8379.88 20237.7,8377.77C20249.2,8383.37 20260.7,8388.54 20272.1,8393.17L20272.1,8393.99C20258.8,8388.62 20245.6,8382.51 20232.2,8375.85C20181.7,8358.24 20131.2,8335.51 20082.2,8313.43C20025.6,8287.9 19967,8261.49 19908.7,8243.2C19843.3,8222.69 19785.2,8214.78 19730.9,8219.01C19714.1,8220.32 19698.2,8223.94 19683.1,8229.92C19644.8,8264.81 19613.4,8310.04 19582.6,8354.41C19568.5,8374.69 19554.6,8394.67 19540.3,8413.35C19526.7,8437.88 19513.2,8461.28 19498.9,8482.52C19466.6,8544.33 19430.6,8594.51 19373.2,8602.24C19370.2,8602.64 19367.2,8602.83 19364.1,8602.83C19333.3,8602.84 19298.9,8583.03 19264.2,8555.64C19247.1,8547.5 19229.3,8537.23 19210.7,8524.8C19180.9,8504.94 19150.9,8480.78 19120.9,8454.98L19120.9,8454.08C19150.9,8479.96 19181.1,8504.2 19210.9,8524.1C19228.5,8535.83 19245.3,8545.64 19261.5,8553.54C19234.5,8531.97 19207.3,8506 19181.6,8481.38C19160,8460.66 19139.2,8440.88 19120.9,8426.01L19120.9,8425.11C19139.3,8440.02 19160.2,8459.9 19181.9,8480.75C19208.5,8506.14 19236.5,8532.97 19264.4,8554.92C19302.5,8573.06 19337.1,8580.59 19369.1,8577.86C19407.7,8574.56 19441.2,8554.36 19474.5,8514.28C19482.8,8504.27 19490.8,8493.46 19498.5,8482.03C19505.8,8467.92 19513,8453.21 19520.2,8438.26C19486.1,8478.11 19448.4,8508.61 19399.5,8517.5C19349,8526.72 19297.3,8515.36 19241.4,8482.79C19200.3,8458.8 19160.1,8425.35 19120.9,8391.06ZM19120.9,8487.31L19120.9,8486.39C19171.5,8529.62 19223.1,8572.23 19272.7,8602.16C19303.6,8620.79 19331.3,8633.17 19357.4,8640C19386.6,8647.66 19413.1,8648.2 19438.4,8641.65C19484.3,8629.73 19519,8595.56 19550.2,8551.88C19552.6,8546.46 19555,8541.02 19557.3,8535.61C19573.1,8499.61 19589.4,8462.39 19610.3,8434.17C19624.5,8415.13 19639,8398.51 19654.1,8384.23C19700.1,8316.22 19755.3,8261.37 19841.1,8259.7C19883.1,8258.87 19927.3,8269.83 19976.1,8293.16C20019.7,8314 20063.2,8342.69 20105.3,8370.44C20131.6,8387.79 20158.1,8405.31 20185.2,8421.27C20213.9,8431.69 20242.8,8442.18 20272.1,8451.32L20272.1,8452.11C20244,8443.35 20216.3,8433.37 20188.8,8423.38C20215,8438.67 20241.6,8452.41 20268.9,8463.04C20270,8463.36 20271,8463.67 20272.1,8463.99L20272.1,8465.06C20271,8464.64 20269.9,8464.21 20268.8,8463.78C20214.3,8447.51 20160.3,8424.22 20107.8,8401.61C20089.8,8393.86 20071.6,8386.03 20053.3,8378.42C20014.7,8368.26 19975.6,8361.39 19936.1,8360.94C19887.9,8360.4 19841.1,8367.57 19797.1,8382.31C19750.4,8397.92 19706.8,8422.03 19667.6,8453.95C19633.1,8481.97 19604.9,8523.12 19577.5,8562.93C19544.4,8611.09 19510.2,8660.89 19465.4,8686.18C19443.3,8698.68 19418.4,8704.95 19390.5,8704.95C19345.2,8704.95 19291.9,8688.33 19229.6,8654.93C19193.6,8635.66 19157.1,8612.11 19120.9,8586.64L19120.9,8585.77C19157.1,8611.3 19193.8,8634.9 19229.8,8654.21C19330.2,8708.03 19407.2,8718.25 19465.2,8685.46C19509.8,8660.24 19544,8610.5 19577.1,8562.4C19604.5,8522.56 19632.8,8481.36 19667.3,8453.29C19706.5,8421.33 19750.2,8397.19 19796.9,8381.55C19841,8366.81 19887.8,8359.59 19936.1,8360.16C19973.9,8360.6 20011.3,8366.89 20048.2,8376.31C20004.9,8358.46 19960.7,8341.95 19915.8,8330.62C19850.9,8314.23 19799,8312.97 19752.4,8326.64C19717.1,8336.98 19684.7,8356.17 19654.4,8384.82C19637.3,8410.2 19621.3,8437.4 19605.6,8464.36C19587.5,8495.31 19569.7,8525.61 19550.6,8552.36C19531.7,8595.07 19511.3,8637.16 19481.8,8663.8C19457.2,8685.93 19427.2,8696.67 19392.5,8695.68C19361.4,8694.8 19326.5,8684.98 19285.8,8665.64C19232.7,8640.43 19176.8,8602.31 19120.9,8561.1L19120.9,8560.23C19176.8,8601.49 19232.8,8639.68 19286,8664.91C19326.7,8684.22 19361.5,8694.03 19392.5,8694.9C19427.1,8695.88 19457,8685.2 19481.4,8663.16C19510.2,8637.2 19530.4,8596.45 19548.9,8554.8C19518.1,8597.44 19483.7,8630.66 19438.5,8642.41C19426.8,8645.44 19414.8,8646.96 19402.5,8646.96C19388.1,8646.96 19373.1,8644.9 19357.3,8640.76C19331.2,8633.92 19303.4,8621.52 19272.5,8602.86C19223,8572.98 19171.4,8530.47 19120.9,8487.31ZM19120.9,8608.56L19120.9,8607.65C19156,8636.85 19192.2,8666.04 19228.8,8688.85C19257.7,8706.83 19285.1,8719.65 19311.7,8727.5L19309.1,8727.5C19283.2,8719.58 19256.6,8706.99 19228.6,8689.55C19192,8666.79 19155.9,8637.69 19120.9,8608.56ZM19120.9,8665.18L19120.9,8664.27C19148.5,8687.32 19176.4,8709.09 19204.3,8727.5L19203.1,8727.5C19175.5,8709.29 19148,8687.86 19120.9,8665.18ZM19120.9,8682.54L19120.9,8681.62C19139.4,8697.12 19158.1,8712.66 19177.2,8727.5L19176.1,8727.5C19157.3,8712.94 19139,8697.72 19120.9,8682.54ZM19438.4,8727.5L19435.8,8727.5C19460.7,8720.04 19486.4,8708.12 19513,8691.64C19561.7,8661.59 19609.6,8619.2 19656,8578.2C19744.4,8500 19835.8,8419.14 19942.6,8410.86C20032.9,8403.85 20120.7,8441.56 20205.5,8478.04C20227.5,8487.48 20249.7,8497.03 20272.1,8505.87L20272.1,8507.46C20267.4,8505.52 20262.7,8503.59 20258,8501.66C20184.5,8471.56 20115.1,8443.13 20043,8431.04C20004.2,8424.54 19968.5,8423.43 19933.6,8427.65C19894.6,8432.38 19857.6,8443.62 19820.5,8462.02C19753.8,8495.16 19696.9,8555.63 19641.9,8614.12C19604.1,8654.3 19565.1,8695.79 19523.4,8727.5L19522.2,8727.5C19564.2,8695.73 19603.4,8653.97 19641.5,8613.51C19696.6,8554.98 19753.5,8494.47 19820.3,8461.29C19857.4,8442.87 19894.5,8431.62 19933.5,8426.88C19968.4,8422.66 20004.3,8423.76 20043.1,8430.27C20107.9,8441.14 20170.5,8465.19 20235.8,8491.78C20225.6,8487.48 20215.4,8483.12 20205.3,8478.78C20120.5,8442.32 20032.8,8404.64 19942.6,8411.63C19836,8419.9 19744.7,8500.71 19656.3,8578.85C19609.9,8619.86 19561.9,8662.27 19513.3,8692.34C19487.5,8708.3 19462.6,8719.99 19438.4,8727.5ZM19620.6,8727.5L19619.6,8727.5C19637.2,8707.97 19653.9,8686.75 19671.1,8664.98C19721.9,8600.55 19774.5,8533.93 19859.9,8495.49C19938.4,8460.2 20026.8,8457.54 20130.2,8487.35C20178.1,8501.17 20224.7,8520.29 20272.1,8542.87L20272.1,8543.69C20224.7,8521.08 20178,8501.93 20130.1,8488.11C20026.7,8458.32 19938.4,8460.98 19860.1,8496.23C19774.8,8534.61 19722.3,8601.17 19671.5,8665.54C19654.5,8687.11 19637.9,8708.12 19620.6,8727.5ZM19644.3,8727.5L19643.3,8727.5C19651.8,8719.17 19660.3,8710.77 19668.6,8702.44C19733.1,8637.99 19799.8,8571.35 19891.4,8548.8C19967.5,8530.06 20036.8,8536.08 20109.5,8567.73C20166.1,8592.36 20218.2,8629.67 20272.1,8670.33L20272.1,8671.22C20218.1,8630.5 20165.9,8593.12 20109.3,8568.47C20036.8,8536.85 19967.6,8530.84 19891.5,8549.56C19800.1,8572.08 19733.4,8638.67 19668.9,8703.07C19660.8,8711.19 19652.6,8719.38 19644.3,8727.5ZM19694.2,8727.5L19693.3,8727.5C19741.4,8679.06 19792.4,8632.18 19853.8,8603.12C19941.5,8561.7 20037.7,8568.89 20156.6,8625.76C20197.7,8645.37 20235.6,8682.01 20272.1,8721.19L20272.1,8722.19C20235.5,8682.91 20197.5,8646.14 20156.5,8626.49C20037.6,8569.68 19941.5,8562.5 19854,8603.86C19792.9,8632.76 19742.2,8679.32 19694.2,8727.5ZM19809.8,8727.5L19807.7,8727.5C19838.1,8715.12 19869.6,8706.93 19901.6,8703.04C19948.6,8697.34 19998.4,8700.76 20049.6,8713.21C20065.6,8717.1 20081.8,8721.86 20098.3,8727.5L20095.9,8727.5C20080.2,8722.19 20064.8,8717.69 20049.5,8713.97C19998.3,8701.53 19948.6,8698.12 19901.6,8703.81C19870.3,8707.62 19839.6,8715.55 19809.8,8727.5ZM19859.9,8727.5L19857.7,8727.5C19930.7,8699.33 20000.7,8704.31 20068.8,8727.5L20066.4,8727.5C19999.7,8705.2 19931.2,8700.52 19859.9,8727.5ZM19682.9,8229.21C19711.9,8202.79 19744.8,8182.29 19784.4,8172.56C19790,8171.2 19795.5,8169.99 19801,8168.94C19800.4,8168.93 19799.9,8168.93 19799.3,8168.93C19780.7,8168.93 19762.8,8171.19 19745.5,8175.69C19698.6,8187.88 19662,8220.56 19630.4,8262.34C19646.8,8247.63 19664.2,8236.62 19682.9,8229.21ZM19501.6,8477.31C19514,8458.47 19525.9,8438.02 19537.7,8416.68C19532.5,8423.46 19527.2,8430.05 19521.8,8436.42C19515.1,8450.34 19508.4,8464.07 19501.6,8477.31ZM19628.2,8265.3C19601.4,8301.39 19578.2,8343.94 19555.3,8385.85C19551,8393.78 19546.7,8401.65 19542.5,8409.41C19555.8,8391.72 19568.9,8372.93 19582.1,8353.88C19612.6,8310.06 19643.7,8265.4 19681.3,8230.66C19662.4,8238.42 19644.8,8249.93 19628.2,8265.3ZM19267,8556.98C19304.2,8585.93 19341,8605.8 19373.1,8601.47C19428.8,8593.98 19464.3,8546.41 19495.8,8487.06C19489.1,8496.85 19482.1,8506.15 19474.9,8514.86C19441.5,8555.06 19407.9,8575.33 19369.1,8578.63C19364.8,8579 19360.5,8579.18 19356.2,8579.18C19328.6,8579.18 19299,8571.85 19267,8556.98ZM20226.9,8373.2C20183.1,8350.84 20139,8322.74 20095.8,8295.16C20038.4,8258.48 19978.9,8220.54 19920.4,8196.21C19878.8,8178.9 19840.6,8169.87 19804.9,8169C19798.1,8170.2 19791.3,8171.64 19784.5,8173.32C19745.7,8182.86 19713.3,8202.79 19684.7,8228.5C19699.3,8222.9 19714.7,8219.5 19730.9,8218.23C19785.2,8214.01 19843.4,8221.92 19908.8,8242.44C19967.1,8260.74 20025.7,8287.16 20082.4,8312.7C20129.7,8333.99 20178.2,8355.88 20226.9,8373.2ZM19625.5,8267.8C19618.5,8274.5 19611.8,8281.9 19605.1,8290.01C19573.3,8328.94 19549.3,8379.08 19526,8427.56C19525,8429.72 19524,8431.87 19522.9,8434.01C19528.7,8427.19 19534.3,8420.11 19539.9,8412.83C19544.8,8403.82 19549.8,8394.66 19554.9,8385.39C19577.1,8344.63 19599.7,8303.26 19625.5,8267.8ZM20185,8422C20183.7,8421.54 20182.5,8421.08 20181.2,8420.62C20141,8406 20100.2,8391.12 20058.7,8379.88C20075.3,8386.79 20091.7,8393.86 20107.9,8400.87C20157.7,8422.31 20208.9,8444.36 20260.5,8460.46C20234.8,8449.84 20209.7,8436.57 20185,8422ZM19656.2,8382.21C19685.9,8354.59 19717.7,8336 19752.2,8325.88C19798.9,8312.19 19850.9,8313.46 19915.9,8329.86C19962.6,8341.64 20008.5,8359.01 20053.4,8377.67C20096.7,8389.07 20139.4,8404.61 20181.4,8419.88L20181.5,8419.92C20155.6,8404.52 20130.2,8387.75 20105,8371.13C20063,8343.4 20019.5,8314.72 19975.9,8293.89C19927.1,8270.59 19883,8259.66 19841.1,8260.47C19756.6,8262.12 19701.9,8315.51 19656.2,8382.21ZM19552,8549.38C19570.4,8523.26 19587.6,8493.88 19605.1,8463.88C19620.4,8437.83 19635.7,8411.55 19652.3,8386.9C19638,8400.69 19624.2,8416.61 19610.7,8434.72C19589.9,8462.88 19573.6,8500.05 19557.8,8536.01C19555.9,8540.46 19553.9,8544.92 19552,8549.38ZM19715.5,7606.64C19735.3,7611.93 19755,7616.41 19774.8,7620.03C19864.9,7636.48 19951.7,7632.45 20047.9,7607.36C20095.4,7594.98 20145.4,7586.11 20199,7580.64C20130.5,7582.76 20061.4,7589.46 19992.1,7603.66C19908.2,7620.83 19829.4,7623.76 19751,7612.62C19739.3,7610.95 19727.5,7608.96 19715.5,7606.64ZM19298.2,7489.67C19368.2,7495.4 19439.8,7510.32 19516,7542.27C19581.2,7569.65 19638.8,7588.85 19693.2,7601.15C19637.8,7584.83 19580,7562.5 19511.7,7535.39C19454.9,7512.83 19397.5,7498.81 19336.3,7492.54C19323.7,7491.25 19311,7490.29 19298.2,7489.67ZM19865.2,7931.07C19811.7,7954.9 19758.8,7984.03 19707.3,8012.36C19678.4,8028.27 19649.2,8044.34 19619.7,8059.57C19681.1,8036.54 19742.5,8001.16 19802.2,7966.82C19823,7954.81 19844.1,7942.71 19865.2,7931.07ZM20012.7,7688.18C20032.6,7681.32 20053,7672.71 20074.5,7663.57C20063.3,7667.34 20051.9,7671.68 20040.1,7676.63C20030.9,7680.51 20021.8,7684.36 20012.7,7688.18Z" style="fill:rgb(14,14,14);"/>
    </g>
</svg>
