<?xml version="1.0" encoding="UTF-8" standalone="no"?>
<!DOCTYPE svg PUBLIC "-//W3C//DTD SVG 1.1//EN" "http://www.w3.org/Graphics/SVG/1.1/DTD/svg11.dtd">
<svg width="100%" height="100%" viewBox="0 0 133 70" version="1.1" xmlns="http://www.w3.org/2000/svg" xmlns:xlink="http://www.w3.org/1999/xlink" xml:space="preserve" xmlns:serif="http://www.serif.com/" style="fill-rule:evenodd;clip-rule:evenodd;stroke-linejoin:round;stroke-miterlimit:2;">
    <g transform="matrix(-0.0412172,-7.25433e-20,-7.25433e-20,-0.0418096,143.377,81.1106)">
        <path d="M2013,1925C2006,1906 2079,1764 2162,1632C2255,1483 2335,1383 2456,1262L2569,1150L2247,1150C1940,1151 1788,1156 1385,1180C1013,1202 488,1254 362,1282C330,1289 306,1290 300,1284C280,1264 269,1103 281,1010C295,904 277,910 473,939C629,962 958,995 1190,1011C1281,1017 1409,1026 1475,1031C1541,1036 1816,1043 2085,1046L2575,1052L2530,1014C2387,889 2224,687 2118,500C2016,320 1998,278 2019,266C2024,262 2075,305 2132,361C2394,618 2671,799 3025,943C3121,982 3274,1031 3378,1054C3466,1075 3475,1079 3478,1101C3481,1124 3476,1127 3363,1154C2919,1259 2487,1498 2154,1822C2087,1887 2030,1940 2026,1940C2022,1940 2017,1933 2013,1925Z" style="fill:url(#_Linear1);fill-rule:nonzero;"/>
    </g>
    <defs>
        <linearGradient id="_Linear1" x1="0" y1="0" x2="1" y2="0" gradientUnits="userSpaceOnUse" gradientTransform="matrix(3202.55,0,0,3202.55,276.02,1102.87)"><stop offset="0" style="stop-color:rgb(212,190,116);stop-opacity:1"/><stop offset="0.5" style="stop-color:rgb(214,195,133);stop-opacity:1"/><stop offset="1" style="stop-color:rgb(212,189,115);stop-opacity:1"/></linearGradient>
    </defs>
</svg>
