<?xml version="1.0" encoding="UTF-8" standalone="no"?>
<!DOCTYPE svg PUBLIC "-//W3C//DTD SVG 1.1//EN" "http://www.w3.org/Graphics/SVG/1.1/DTD/svg11.dtd">
<svg width="100%" height="100%" viewBox="0 0 39 39" version="1.1" xmlns="http://www.w3.org/2000/svg" xmlns:xlink="http://www.w3.org/1999/xlink" xml:space="preserve" xmlns:serif="http://www.serif.com/" style="fill-rule:evenodd;clip-rule:evenodd;stroke-linejoin:round;stroke-miterlimit:2;">
    <g transform="matrix(0.553201,0,0,0.553191,-601.468,-771.287)">
        <circle cx="1122.5" cy="1429.5" r="23.5" style="fill:rgb(235,235,235);fill-opacity:0.82;"/>
        <path d="M1122.5,1394.7C1141.71,1394.7 1157.3,1410.29 1157.3,1429.5C1157.3,1448.71 1141.71,1464.3 1122.5,1464.3C1103.29,1464.3 1087.7,1448.71 1087.7,1429.5C1087.7,1410.29 1103.29,1394.7 1122.5,1394.7ZM1122.5,1406C1109.53,1406 1099,1416.53 1099,1429.5C1099,1442.47 1109.53,1453 1122.5,1453C1135.47,1453 1146,1442.47 1146,1429.5C1146,1416.53 1135.47,1406 1122.5,1406Z" style="fill:rgb(215,196,132);"/>
    </g>
</svg>
