<?xml version="1.0" encoding="UTF-8" standalone="no"?>
<!DOCTYPE svg PUBLIC "-//W3C//DTD SVG 1.1//EN" "http://www.w3.org/Graphics/SVG/1.1/DTD/svg11.dtd">
<svg width="100%" height="100%" viewBox="0 0 50 50" version="1.1" xmlns="http://www.w3.org/2000/svg" xmlns:xlink="http://www.w3.org/1999/xlink" xml:space="preserve" xmlns:serif="http://www.serif.com/" style="fill-rule:evenodd;clip-rule:evenodd;stroke-linejoin:round;stroke-miterlimit:2;">
    <g transform="matrix(0.0725159,0,0,0.0725159,-5.95698,-6.66257)">
        <path d="M121,93.518C73.067,103.744 83,160.961 83,197L83,535C83,548.58 81.323,562.568 87.89,575C103.837,605.186 134.775,603 164,603C182.319,603 201.009,602.208 211.881,620C220.546,634.179 218.164,652.307 217.09,668C215.394,692.76 214.04,718.195 214,743C213.969,762.107 218.654,784.487 244,780.848C250.395,779.93 256.603,772.32 261,767.997C271.732,757.445 282.983,747.348 294,737.089C324.591,708.605 355.004,679.876 386,651.83C399.615,639.511 412.663,622.574 429,613.89C454.978,600.081 485.685,603 514,603L664,603C693.122,603 733.283,610.637 755.96,587.96C774.869,569.051 771,542.353 771,518L771,184C771,158.884 776.085,129.244 757.826,109.004C741.971,91.428 722.592,93 701,93L172,93C155.898,93 136.749,90.158 121,93.518Z" style="fill:rgb(241,111,129);fill-rule:nonzero;"/>
        <path d="M426,152C418.898,182.7 407.375,212.908 398.025,243C395.679,250.554 393.558,269.488 386.606,273.972C379.577,278.506 359.432,276 351,276L259,276C265.614,284.007 276.555,289.691 285,295.709C301.972,307.804 319.059,319.721 336,331.86C342.962,336.848 359.787,344.648 362.647,353.015C365.261,360.663 355.527,379.347 353.001,387C343.591,415.509 332.765,444.757 326,474C335.884,470.844 344.764,461.651 353,455.474L402,418.873C408.551,413.969 420.755,400.578 429,399.878C436.5,399.242 450.956,413.984 457,418.291L508,454.709C516.174,460.534 524.576,468.427 534,472C527.746,442.082 514.494,411.903 504.495,383C502.148,376.215 491.793,356.976 495.121,350.325C499.029,342.516 514.046,335.333 521,330.127C537.93,317.45 555.022,304.984 572,292.37C579.913,286.492 590.116,280.971 596,273C564.31,273 532.723,274 501,274C493.945,274 473.548,277.518 468.51,272.552C462.537,266.664 460.499,251.868 457.972,244C450.885,221.928 443.453,199.904 435.861,178C433.086,169.993 431.641,158.399 426,152Z" style="fill:rgb(231,231,231);fill-rule:nonzero;"/>
    </g>
</svg>
