<?xml version="1.0" encoding="UTF-8" standalone="no"?>
<!DOCTYPE svg PUBLIC "-//W3C//DTD SVG 1.1//EN" "http://www.w3.org/Graphics/SVG/1.1/DTD/svg11.dtd">
<svg width="100%" height="100%" viewBox="0 0 365 46" version="1.1" xmlns="http://www.w3.org/2000/svg" xmlns:xlink="http://www.w3.org/1999/xlink" xml:space="preserve" xmlns:serif="http://www.serif.com/" style="fill-rule:evenodd;clip-rule:evenodd;stroke-linejoin:round;stroke-miterlimit:2;">
    <g transform="matrix(1.00943,0,0,1.01714,0,-0.0001565)">
        <path d="M0,17.275L18.164,17.275L23.776,0L29.389,17.275L47.553,17.275L32.858,27.951L38.471,45.225L23.776,34.549L9.082,45.225L14.695,27.951L0,17.275Z" style="fill:rgb(240,207,117);"/>
    </g>
    <g transform="matrix(1.00943,0,0,1.01714,158.723,0)">
        <path d="M0,17.275L18.164,17.275L23.776,0L29.389,17.275L47.553,17.275L32.858,27.951L38.471,45.225L23.776,34.549L9.082,45.225L14.695,27.951L0,17.275Z" style="fill:rgb(240,207,117);"/>
    </g>
    <g transform="matrix(1.00943,0,0,1.01714,79.4364,0)">
        <path d="M0,17.275L18.164,17.275L23.776,0L29.389,17.275L47.553,17.275L32.858,27.951L38.471,45.225L23.776,34.549L9.082,45.225L14.695,27.951L0,17.275Z" style="fill:rgb(240,207,117);"/>
    </g>
    <g transform="matrix(1.00943,0,0,1.01714,238.009,0)">
        <path d="M0,17.275L18.164,17.275L23.776,0L29.389,17.275L47.553,17.275L32.858,27.951L38.471,45.225L23.776,34.549L9.082,45.225L14.695,27.951L0,17.275Z" style="fill:rgb(240,207,117);"/>
    </g>
    <g transform="matrix(1.00943,0,0,1.01714,316.998,0)">
        <path d="M0,17.275L18.164,17.275L23.776,0L29.389,17.275L47.553,17.275L32.858,27.951L38.471,45.225L23.776,34.549L9.082,45.225L14.695,27.951L0,17.275Z" style="fill:rgb(240,207,117);"/>
    </g>
</svg>
