<?xml version="1.0" encoding="UTF-8" standalone="no"?><!DOCTYPE svg PUBLIC "-//W3C//DTD SVG 1.1//EN" "http://www.w3.org/Graphics/SVG/1.1/DTD/svg11.dtd"><svg width="100%" height="100%" viewBox="0 0 735 127" version="1.1" xmlns="http://www.w3.org/2000/svg" xmlns:xlink="http://www.w3.org/1999/xlink" xml:space="preserve" xmlns:serif="http://www.serif.com/" style="fill-rule:evenodd;clip-rule:evenodd;stroke-linejoin:round;stroke-miterlimit:2;"><path d="M62.231,56.513c-0.171,0.682 -0.405,1.229 -0.704,1.642c-0.298,0.412 -0.746,0.725 -1.343,0.938c-0.597,0.213 -1.365,0.355 -2.304,0.426c-0.938,0.071 -2.132,0.107 -3.582,0.107c-1.621,0 -2.922,-0.036 -3.903,-0.107c-0.981,-0.071 -1.756,-0.213 -2.324,-0.426c-0.569,-0.213 -0.981,-0.526 -1.237,-0.938c-0.256,-0.413 -0.455,-0.96 -0.597,-1.642l-8.829,-34.974l-0.085,-0l-8.36,34.974c-0.142,0.653 -0.341,1.187 -0.597,1.599c-0.256,0.412 -0.661,0.732 -1.216,0.96c-0.554,0.227 -1.307,0.376 -2.26,0.447c-0.953,0.071 -2.211,0.107 -3.775,0.107c-1.649,0 -2.964,-0.036 -3.945,-0.107c-0.981,-0.071 -1.756,-0.213 -2.324,-0.426c-0.569,-0.213 -0.981,-0.526 -1.237,-0.938c-0.256,-0.413 -0.469,-0.96 -0.64,-1.642l-12.539,-48.153c-0.256,-1.024 -0.398,-1.827 -0.427,-2.41c-0.028,-0.583 0.135,-1.031 0.491,-1.344c0.355,-0.312 0.938,-0.504 1.748,-0.575c0.811,-0.072 1.941,-0.107 3.391,-0.107c1.336,-0 2.396,0.021 3.178,0.064c0.782,0.043 1.372,0.142 1.77,0.298c0.398,0.157 0.668,0.384 0.81,0.683c0.142,0.298 0.256,0.718 0.341,1.258l9.682,42.267l0.043,0l10.065,-41.968c0.114,-0.541 0.263,-0.981 0.448,-1.323c0.185,-0.341 0.498,-0.604 0.938,-0.789c0.441,-0.184 1.045,-0.312 1.813,-0.383c0.768,-0.072 1.791,-0.107 3.071,-0.107c1.365,-0 2.452,0.028 3.263,0.085c0.81,0.057 1.436,0.178 1.876,0.363c0.441,0.185 0.761,0.448 0.96,0.789c0.199,0.341 0.355,0.796 0.469,1.365l10.407,41.968l0.085,0l9.682,-42.139c0.085,-0.455 0.199,-0.846 0.341,-1.173c0.142,-0.327 0.413,-0.583 0.811,-0.768c0.398,-0.184 0.966,-0.312 1.706,-0.383c0.739,-0.072 1.777,-0.107 3.113,-0.107c1.251,-0 2.225,0.035 2.922,0.107c0.696,0.071 1.201,0.263 1.514,0.575c0.313,0.313 0.448,0.775 0.405,1.386c-0.043,0.612 -0.192,1.443 -0.448,2.496l-12.667,48.025Z" style="fill:#f5f5f5;fill-rule:nonzero;"/><path d="M122.087,38.514c0,3.241 -0.426,6.198 -1.279,8.871c-0.853,2.673 -2.147,4.976 -3.882,6.91c-1.734,1.933 -3.909,3.426 -6.525,4.478c-2.616,1.052 -5.673,1.578 -9.17,1.578c-3.384,0 -6.327,-0.469 -8.829,-1.407c-2.502,-0.939 -4.578,-2.304 -6.227,-4.095c-1.649,-1.791 -2.872,-3.995 -3.668,-6.611c-0.796,-2.616 -1.194,-5.601 -1.194,-8.956c-0,-3.242 0.434,-6.206 1.301,-8.893c0.867,-2.687 2.168,-4.99 3.902,-6.91c1.735,-1.919 3.903,-3.405 6.505,-4.457c2.601,-1.052 5.651,-1.578 9.148,-1.578c3.412,0 6.369,0.462 8.872,1.386c2.502,0.924 4.57,2.282 6.205,4.074c1.635,1.791 2.851,3.995 3.647,6.61c0.796,2.616 1.194,5.616 1.194,9Zm-11.046,0.426c-0,-1.876 -0.15,-3.604 -0.448,-5.182c-0.299,-1.578 -0.803,-2.95 -1.514,-4.116c-0.711,-1.165 -1.657,-2.075 -2.837,-2.729c-1.18,-0.654 -2.665,-0.981 -4.457,-0.981c-1.592,-0 -2.985,0.291 -4.179,0.874c-1.195,0.583 -2.176,1.436 -2.943,2.559c-0.768,1.123 -1.344,2.474 -1.728,4.052c-0.384,1.578 -0.575,3.377 -0.575,5.395c-0,1.877 0.156,3.604 0.469,5.182c0.312,1.579 0.817,2.95 1.514,4.116c0.696,1.166 1.642,2.069 2.836,2.709c1.194,0.639 2.673,0.959 4.436,0.959c1.621,0 3.028,-0.291 4.222,-0.874c1.194,-0.583 2.175,-1.429 2.943,-2.538c0.768,-1.109 1.337,-2.452 1.706,-4.03c0.37,-1.578 0.555,-3.377 0.555,-5.396Z" style="fill:#f5f5f5;fill-rule:nonzero;"/><path d="M173.413,38.514c0,3.241 -0.426,6.198 -1.279,8.871c-0.853,2.673 -2.147,4.976 -3.881,6.91c-1.735,1.933 -3.91,3.426 -6.526,4.478c-2.616,1.052 -5.673,1.578 -9.17,1.578c-3.384,0 -6.326,-0.469 -8.829,-1.407c-2.502,-0.939 -4.578,-2.304 -6.227,-4.095c-1.649,-1.791 -2.872,-3.995 -3.668,-6.611c-0.796,-2.616 -1.194,-5.601 -1.194,-8.956c0,-3.242 0.434,-6.206 1.301,-8.893c0.867,-2.687 2.168,-4.99 3.903,-6.91c1.734,-1.919 3.902,-3.405 6.504,-4.457c2.601,-1.052 5.651,-1.578 9.148,-1.578c3.412,0 6.37,0.462 8.872,1.386c2.502,0.924 4.571,2.282 6.206,4.074c1.634,1.791 2.85,3.995 3.646,6.61c0.796,2.616 1.194,5.616 1.194,9Zm-11.046,0.426c-0,-1.876 -0.149,-3.604 -0.448,-5.182c-0.299,-1.578 -0.803,-2.95 -1.514,-4.116c-0.711,-1.165 -1.656,-2.075 -2.836,-2.729c-1.18,-0.654 -2.666,-0.981 -4.457,-0.981c-1.593,-0 -2.986,0.291 -4.18,0.874c-1.194,0.583 -2.175,1.436 -2.943,2.559c-0.768,1.123 -1.344,2.474 -1.728,4.052c-0.383,1.578 -0.575,3.377 -0.575,5.395c-0,1.877 0.156,3.604 0.469,5.182c0.313,1.579 0.817,2.95 1.514,4.116c0.697,1.166 1.642,2.069 2.836,2.709c1.194,0.639 2.673,0.959 4.436,0.959c1.621,0 3.028,-0.291 4.222,-0.874c1.195,-0.583 2.176,-1.429 2.943,-2.538c0.768,-1.109 1.337,-2.452 1.706,-4.03c0.37,-1.578 0.555,-3.377 0.555,-5.396Z" style="fill:#f5f5f5;fill-rule:nonzero;"/><path d="M222.351,57.92c0,0.313 -0.071,0.576 -0.213,0.789c-0.142,0.213 -0.384,0.391 -0.725,0.533c-0.341,0.142 -0.803,0.242 -1.386,0.299c-0.583,0.057 -1.301,0.085 -2.154,0.085c-0.91,0 -1.649,-0.028 -2.218,-0.085c-0.569,-0.057 -1.031,-0.157 -1.386,-0.299c-0.356,-0.142 -0.612,-0.32 -0.768,-0.533c-0.156,-0.213 -0.235,-0.476 -0.235,-0.789l0,-4.222c-1.962,2.104 -4.016,3.739 -6.163,4.904c-2.146,1.166 -4.528,1.749 -7.144,1.749c-2.9,0 -5.352,-0.561 -7.357,-1.685c-2.005,-1.123 -3.639,-2.637 -4.905,-4.542c-1.265,-1.905 -2.182,-4.13 -2.751,-6.675c-0.568,-2.545 -0.853,-5.225 -0.853,-8.04c0,-3.383 0.363,-6.426 1.088,-9.127c0.725,-2.701 1.784,-5.004 3.177,-6.909c1.394,-1.905 3.128,-3.37 5.204,-4.393c2.075,-1.024 4.464,-1.536 7.165,-1.536c2.133,0 4.066,0.434 5.801,1.301c1.734,0.867 3.454,2.14 5.16,3.817l0,-20.6c0,-0.284 0.079,-0.54 0.235,-0.768c0.156,-0.227 0.441,-0.419 0.853,-0.576c0.412,-0.156 0.96,-0.277 1.642,-0.362c0.682,-0.085 1.55,-0.128 2.602,-0.128c1.052,-0 1.919,0.043 2.601,0.128c0.683,0.085 1.223,0.206 1.621,0.362c0.398,0.157 0.683,0.349 0.853,0.576c0.171,0.228 0.256,0.484 0.256,0.768l0,55.958Zm-10.663,-25.42c-1.535,-1.933 -3.007,-3.412 -4.414,-4.436c-1.407,-1.023 -2.879,-1.535 -4.414,-1.535c-1.394,-0 -2.595,0.348 -3.604,1.045c-1.01,0.696 -1.82,1.628 -2.432,2.793c-0.611,1.166 -1.066,2.467 -1.364,3.903c-0.299,1.436 -0.448,2.907 -0.448,4.414c-0,1.593 0.128,3.142 0.384,4.649c0.256,1.507 0.675,2.851 1.258,4.031c0.583,1.18 1.358,2.125 2.324,2.836c0.967,0.711 2.19,1.066 3.668,1.066c0.74,0 1.458,-0.106 2.154,-0.319c0.697,-0.214 1.408,-0.562 2.133,-1.045c0.725,-0.484 1.471,-1.116 2.239,-1.898c0.768,-0.782 1.606,-1.742 2.516,-2.879l0,-12.625Z" style="fill:#f5f5f5;fill-rule:nonzero;"/><path d="M295.728,19.79c-0,0.313 -0.043,0.697 -0.128,1.152c-0.085,0.455 -0.242,1.109 -0.469,1.962l-10.151,34.419c-0.142,0.483 -0.327,0.874 -0.555,1.173c-0.227,0.298 -0.576,0.533 -1.045,0.704c-0.469,0.17 -1.137,0.284 -2.004,0.341c-0.867,0.057 -1.998,0.085 -3.391,0.085c-1.393,0 -2.531,-0.036 -3.412,-0.107c-0.882,-0.071 -1.571,-0.192 -2.069,-0.362c-0.497,-0.171 -0.86,-0.405 -1.087,-0.704c-0.228,-0.298 -0.398,-0.675 -0.512,-1.13l-6.398,-23.117l-0.085,-0.384l-0.085,0.384l-5.886,23.117c-0.114,0.483 -0.277,0.874 -0.491,1.173c-0.213,0.298 -0.575,0.533 -1.087,0.704c-0.512,0.17 -1.209,0.284 -2.09,0.341c-0.882,0.057 -2.019,0.085 -3.412,0.085c-1.422,0 -2.566,-0.036 -3.434,-0.107c-0.867,-0.071 -1.549,-0.192 -2.047,-0.362c-0.497,-0.171 -0.86,-0.405 -1.087,-0.704c-0.228,-0.298 -0.399,-0.675 -0.512,-1.13l-10.066,-34.419c-0.256,-0.825 -0.419,-1.472 -0.49,-1.941c-0.071,-0.469 -0.107,-0.86 -0.107,-1.173c0,-0.284 0.078,-0.533 0.235,-0.746c0.156,-0.214 0.44,-0.384 0.853,-0.512c0.412,-0.128 0.966,-0.221 1.663,-0.277c0.697,-0.057 1.571,-0.086 2.623,-0.086c1.137,0 2.061,0.029 2.772,0.086c0.711,0.056 1.266,0.156 1.664,0.298c0.398,0.142 0.675,0.334 0.831,0.576c0.157,0.242 0.278,0.533 0.363,0.874l7.549,27.937l0.085,0.511l0.086,-0.511l7.08,-27.937c0.085,-0.341 0.22,-0.632 0.405,-0.874c0.185,-0.242 0.462,-0.434 0.832,-0.576c0.369,-0.142 0.888,-0.242 1.556,-0.298c0.669,-0.057 1.529,-0.086 2.581,-0.086c1.052,0 1.905,0.036 2.559,0.107c0.654,0.071 1.173,0.171 1.557,0.298c0.384,0.128 0.654,0.299 0.81,0.512c0.156,0.214 0.277,0.462 0.363,0.747l7.591,28.149l0.128,0.469l0.086,-0.511l7.25,-27.937c0.057,-0.341 0.171,-0.632 0.342,-0.874c0.17,-0.242 0.455,-0.434 0.853,-0.576c0.398,-0.142 0.938,-0.242 1.62,-0.298c0.683,-0.057 1.55,-0.086 2.602,-0.086c1.052,0 1.912,0.029 2.58,0.086c0.669,0.056 1.195,0.149 1.578,0.277c0.384,0.128 0.647,0.298 0.79,0.512c0.142,0.213 0.213,0.462 0.213,0.746Z" style="fill:#f5f5f5;fill-rule:nonzero;"/><path d="M344.708,38.514c0,3.241 -0.426,6.198 -1.279,8.871c-0.853,2.673 -2.147,4.976 -3.882,6.91c-1.734,1.933 -3.909,3.426 -6.525,4.478c-2.616,1.052 -5.673,1.578 -9.17,1.578c-3.384,0 -6.327,-0.469 -8.829,-1.407c-2.502,-0.939 -4.578,-2.304 -6.227,-4.095c-1.649,-1.791 -2.872,-3.995 -3.668,-6.611c-0.796,-2.616 -1.194,-5.601 -1.194,-8.956c-0,-3.242 0.433,-6.206 1.301,-8.893c0.867,-2.687 2.168,-4.99 3.902,-6.91c1.735,-1.919 3.903,-3.405 6.505,-4.457c2.601,-1.052 5.651,-1.578 9.148,-1.578c3.412,0 6.369,0.462 8.872,1.386c2.502,0.924 4.57,2.282 6.205,4.074c1.635,1.791 2.851,3.995 3.647,6.61c0.796,2.616 1.194,5.616 1.194,9Zm-11.046,0.426c-0,-1.876 -0.15,-3.604 -0.448,-5.182c-0.299,-1.578 -0.804,-2.95 -1.514,-4.116c-0.711,-1.165 -1.657,-2.075 -2.837,-2.729c-1.18,-0.654 -2.665,-0.981 -4.457,-0.981c-1.592,-0 -2.985,0.291 -4.18,0.874c-1.194,0.583 -2.175,1.436 -2.942,2.559c-0.768,1.123 -1.344,2.474 -1.728,4.052c-0.384,1.578 -0.576,3.377 -0.576,5.395c0,1.877 0.157,3.604 0.47,5.182c0.312,1.579 0.817,2.95 1.514,4.116c0.696,1.166 1.642,2.069 2.836,2.709c1.194,0.639 2.673,0.959 4.436,0.959c1.62,0 3.028,-0.291 4.222,-0.874c1.194,-0.583 2.175,-1.429 2.943,-2.538c0.768,-1.109 1.336,-2.452 1.706,-4.03c0.37,-1.578 0.555,-3.377 0.555,-5.396Z" style="fill:#f5f5f5;fill-rule:nonzero;"/><path d="M382.002,23.415c0,1.024 -0.028,1.863 -0.085,2.517c-0.057,0.654 -0.142,1.166 -0.256,1.535c-0.114,0.37 -0.263,0.626 -0.448,0.768c-0.185,0.142 -0.419,0.213 -0.704,0.213c-0.227,0 -0.483,-0.05 -0.767,-0.149c-0.285,-0.1 -0.605,-0.206 -0.96,-0.32c-0.355,-0.114 -0.746,-0.22 -1.173,-0.32c-0.426,-0.099 -0.896,-0.149 -1.407,-0.149c-0.598,-0 -1.195,0.121 -1.792,0.362c-0.597,0.242 -1.215,0.619 -1.855,1.131c-0.64,0.511 -1.308,1.194 -2.005,2.047c-0.696,0.853 -1.443,1.905 -2.239,3.156l0,23.714c0,0.284 -0.085,0.533 -0.256,0.746c-0.17,0.214 -0.462,0.391 -0.874,0.534c-0.412,0.142 -0.96,0.248 -1.642,0.319c-0.683,0.071 -1.55,0.107 -2.602,0.107c-1.052,0 -1.919,-0.036 -2.602,-0.107c-0.682,-0.071 -1.229,-0.177 -1.642,-0.319c-0.412,-0.143 -0.703,-0.32 -0.874,-0.534c-0.171,-0.213 -0.256,-0.462 -0.256,-0.746l0,-38.045c0,-0.284 0.071,-0.533 0.213,-0.746c0.143,-0.213 0.398,-0.391 0.768,-0.533c0.37,-0.142 0.846,-0.249 1.429,-0.32c0.583,-0.071 1.315,-0.107 2.196,-0.107c0.91,0 1.664,0.036 2.261,0.107c0.597,0.071 1.059,0.178 1.386,0.32c0.327,0.142 0.562,0.32 0.704,0.533c0.142,0.213 0.213,0.462 0.213,0.746l0,4.735c0.995,-1.422 1.934,-2.595 2.815,-3.519c0.882,-0.924 1.72,-1.656 2.516,-2.197c0.797,-0.54 1.593,-0.917 2.389,-1.13c0.796,-0.213 1.592,-0.32 2.388,-0.32c0.37,0 0.768,0.022 1.195,0.064c0.426,0.043 0.867,0.114 1.322,0.213c0.455,0.1 0.853,0.214 1.194,0.342c0.341,0.128 0.59,0.263 0.746,0.405c0.157,0.142 0.271,0.298 0.342,0.469c0.071,0.171 0.135,0.405 0.192,0.704c0.056,0.298 0.099,0.746 0.127,1.343c0.029,0.597 0.043,1.408 0.043,2.431Z" style="fill:#f5f5f5;fill-rule:nonzero;"/><path d="M428.338,57.963c0,0.284 -0.078,0.533 -0.234,0.746c-0.157,0.213 -0.441,0.384 -0.853,0.512c-0.413,0.128 -0.974,0.227 -1.685,0.298c-0.711,0.071 -1.635,0.107 -2.773,0.107c-1.165,0 -2.111,-0.028 -2.836,-0.085c-0.725,-0.057 -1.322,-0.15 -1.791,-0.278c-0.469,-0.127 -0.832,-0.305 -1.088,-0.533c-0.256,-0.227 -0.483,-0.526 -0.682,-0.895l-12.667,-20.046l-0,20.131c-0,0.284 -0.086,0.533 -0.256,0.746c-0.171,0.214 -0.462,0.391 -0.875,0.534c-0.412,0.142 -0.959,0.248 -1.642,0.319c-0.682,0.071 -1.549,0.107 -2.601,0.107c-1.053,0 -1.92,-0.036 -2.602,-0.107c-0.683,-0.071 -1.23,-0.177 -1.642,-0.319c-0.413,-0.143 -0.704,-0.32 -0.875,-0.534c-0.17,-0.213 -0.256,-0.462 -0.256,-0.746l0,-56.086c0,-0.284 0.086,-0.54 0.256,-0.768c0.171,-0.227 0.462,-0.419 0.875,-0.576c0.412,-0.156 0.959,-0.277 1.642,-0.362c0.682,-0.085 1.549,-0.128 2.602,-0.128c1.052,0 1.919,0.043 2.601,0.128c0.683,0.085 1.23,0.206 1.642,0.362c0.413,0.157 0.704,0.349 0.875,0.576c0.17,0.228 0.256,0.484 0.256,0.768l-0,33.396l11.259,-15.141c0.228,-0.342 0.484,-0.64 0.768,-0.896c0.284,-0.256 0.661,-0.455 1.13,-0.597c0.47,-0.142 1.052,-0.249 1.749,-0.32c0.697,-0.071 1.585,-0.107 2.666,-0.107c1.052,0 1.94,0.036 2.665,0.107c0.725,0.071 1.308,0.178 1.749,0.32c0.441,0.142 0.746,0.32 0.917,0.533c0.171,0.213 0.256,0.476 0.256,0.789c-0,0.427 -0.107,0.881 -0.32,1.365c-0.213,0.483 -0.533,0.995 -0.96,1.535l-11.131,12.625l12.88,19.918c0.341,0.569 0.59,1.059 0.747,1.471c0.156,0.413 0.234,0.789 0.234,1.131Z" style="fill:#f5f5f5;fill-rule:nonzero;"/><path d="M465.334,47.172c-0,2.161 -0.406,4.066 -1.216,5.715c-0.81,1.649 -1.955,3.028 -3.433,4.137c-1.479,1.109 -3.228,1.941 -5.246,2.495c-2.019,0.555 -4.209,0.832 -6.569,0.832c-1.421,0 -2.779,-0.107 -4.073,-0.32c-1.294,-0.213 -2.452,-0.483 -3.476,-0.81c-1.024,-0.327 -1.877,-0.661 -2.559,-1.002c-0.682,-0.342 -1.18,-0.662 -1.493,-0.96c-0.313,-0.299 -0.554,-0.768 -0.725,-1.408c-0.17,-0.639 -0.256,-1.585 -0.256,-2.836c0,-0.824 0.029,-1.486 0.086,-1.983c0.056,-0.498 0.142,-0.896 0.255,-1.194c0.114,-0.299 0.256,-0.498 0.427,-0.597c0.171,-0.1 0.384,-0.15 0.64,-0.15c0.313,0 0.775,0.178 1.386,0.533c0.611,0.356 1.372,0.747 2.282,1.173c0.91,0.427 1.969,0.825 3.177,1.195c1.209,0.369 2.581,0.554 4.116,0.554c0.967,-0 1.827,-0.1 2.58,-0.299c0.754,-0.199 1.408,-0.483 1.962,-0.853c0.555,-0.369 0.974,-0.838 1.259,-1.407c0.284,-0.569 0.426,-1.223 0.426,-1.962c0,-0.853 -0.263,-1.585 -0.789,-2.197c-0.526,-0.611 -1.223,-1.144 -2.09,-1.599c-0.867,-0.455 -1.848,-0.881 -2.943,-1.279c-1.094,-0.399 -2.218,-0.839 -3.369,-1.323c-1.152,-0.483 -2.275,-1.038 -3.37,-1.663c-1.094,-0.626 -2.075,-1.393 -2.943,-2.303c-0.867,-0.91 -1.563,-2.005 -2.089,-3.284c-0.526,-1.28 -0.789,-2.815 -0.789,-4.607c-0,-1.819 0.355,-3.49 1.066,-5.011c0.711,-1.521 1.734,-2.822 3.071,-3.903c1.336,-1.08 2.964,-1.919 4.883,-2.516c1.919,-0.597 4.073,-0.896 6.462,-0.896c1.194,0 2.353,0.086 3.476,0.256c1.123,0.171 2.14,0.384 3.049,0.64c0.91,0.256 1.678,0.533 2.304,0.832c0.625,0.298 1.073,0.554 1.343,0.767c0.27,0.214 0.462,0.427 0.576,0.64c0.114,0.213 0.199,0.469 0.256,0.768c0.057,0.298 0.106,0.668 0.149,1.109c0.043,0.44 0.064,0.988 0.064,1.642c0,0.768 -0.021,1.393 -0.064,1.876c-0.043,0.484 -0.114,0.868 -0.213,1.152c-0.1,0.284 -0.235,0.476 -0.405,0.576c-0.171,0.099 -0.37,0.149 -0.598,0.149c-0.255,0 -0.654,-0.149 -1.194,-0.448c-0.54,-0.298 -1.215,-0.618 -2.026,-0.959c-0.81,-0.342 -1.748,-0.662 -2.815,-0.96c-1.066,-0.299 -2.281,-0.448 -3.646,-0.448c-0.967,0 -1.806,0.1 -2.517,0.299c-0.711,0.199 -1.293,0.483 -1.748,0.853c-0.455,0.369 -0.797,0.803 -1.024,1.301c-0.227,0.497 -0.341,1.03 -0.341,1.599c-0,0.881 0.27,1.621 0.81,2.218c0.54,0.597 1.251,1.123 2.133,1.578c0.881,0.455 1.883,0.881 3.007,1.279c1.123,0.398 2.26,0.832 3.412,1.301c1.151,0.469 2.289,1.017 3.412,1.642c1.123,0.626 2.125,1.394 3.007,2.303c0.881,0.91 1.592,1.998 2.132,3.263c0.54,1.266 0.811,2.765 0.811,4.5Z" style="fill:#f5f5f5;fill-rule:nonzero;"/><path d="M566.834,57.835c0,0.284 -0.078,0.54 -0.234,0.767c-0.157,0.228 -0.441,0.413 -0.853,0.555c-0.413,0.142 -0.96,0.256 -1.642,0.341c-0.683,0.085 -1.55,0.128 -2.602,0.128c-1.024,0 -1.877,-0.043 -2.559,-0.128c-0.683,-0.085 -1.223,-0.199 -1.621,-0.341c-0.398,-0.142 -0.682,-0.327 -0.853,-0.555c-0.17,-0.227 -0.256,-0.483 -0.256,-0.767l0,-44.912l-0.085,0l-15.994,44.869c-0.114,0.37 -0.299,0.675 -0.555,0.917c-0.256,0.242 -0.604,0.434 -1.045,0.576c-0.44,0.142 -1.002,0.234 -1.684,0.277c-0.683,0.043 -1.507,0.064 -2.474,0.064c-0.967,0 -1.791,-0.036 -2.474,-0.107c-0.682,-0.071 -1.244,-0.184 -1.685,-0.341c-0.44,-0.156 -0.789,-0.348 -1.045,-0.576c-0.255,-0.227 -0.426,-0.497 -0.511,-0.81l-15.44,-44.869l-0.085,0l-0,44.912c-0,0.284 -0.078,0.54 -0.235,0.767c-0.156,0.228 -0.448,0.413 -0.874,0.555c-0.427,0.142 -0.974,0.256 -1.642,0.341c-0.668,0.085 -1.529,0.128 -2.581,0.128c-1.023,0 -1.876,-0.043 -2.559,-0.128c-0.682,-0.085 -1.229,-0.199 -1.642,-0.341c-0.412,-0.142 -0.696,-0.327 -0.853,-0.555c-0.156,-0.227 -0.234,-0.483 -0.234,-0.767l-0,-49.177c-0,-1.45 0.384,-2.559 1.151,-3.327c0.768,-0.767 1.792,-1.151 3.071,-1.151l7.336,-0c1.308,-0 2.431,0.106 3.369,0.32c0.939,0.213 1.749,0.568 2.432,1.066c0.682,0.498 1.251,1.152 1.706,1.962c0.455,0.81 0.853,1.813 1.194,3.007l11.942,32.884l0.171,-0l12.369,-32.799c0.369,-1.194 0.774,-2.204 1.215,-3.028c0.441,-0.825 0.953,-1.493 1.535,-2.005c0.583,-0.512 1.273,-0.874 2.069,-1.087c0.796,-0.214 1.72,-0.32 2.772,-0.32l7.55,-0c0.767,-0 1.428,0.099 1.983,0.298c0.554,0.199 1.009,0.491 1.365,0.875c0.355,0.384 0.625,0.853 0.81,1.407c0.185,0.555 0.277,1.187 0.277,1.898l0,49.177Z" style="fill:#f5f5f5;fill-rule:nonzero;"/><path d="M618.672,57.92c0,0.284 -0.071,0.533 -0.213,0.746c-0.142,0.214 -0.391,0.391 -0.746,0.534c-0.356,0.142 -0.825,0.248 -1.408,0.319c-0.583,0.071 -1.315,0.107 -2.196,0.107c-0.939,0 -1.699,-0.036 -2.282,-0.107c-0.583,-0.071 -1.045,-0.177 -1.386,-0.319c-0.342,-0.143 -0.583,-0.32 -0.725,-0.534c-0.143,-0.213 -0.214,-0.462 -0.214,-0.746l0,-4.393c-2.104,2.275 -4.243,3.981 -6.419,5.118c-2.175,1.137 -4.428,1.706 -6.76,1.706c-2.616,0 -4.812,-0.426 -6.589,-1.279c-1.778,-0.853 -3.213,-2.019 -4.308,-3.498c-1.095,-1.478 -1.877,-3.192 -2.346,-5.139c-0.469,-1.948 -0.704,-4.372 -0.704,-7.272l0,-23.288c0,-0.284 0.078,-0.533 0.235,-0.746c0.156,-0.213 0.441,-0.391 0.853,-0.533c0.412,-0.142 0.967,-0.249 1.663,-0.32c0.697,-0.071 1.557,-0.107 2.581,-0.107c1.052,0 1.919,0.036 2.601,0.107c0.683,0.071 1.23,0.178 1.642,0.32c0.413,0.142 0.704,0.32 0.875,0.533c0.17,0.213 0.256,0.462 0.256,0.746l-0,21.496c-0,1.991 0.128,3.512 0.384,4.564c0.255,1.052 0.646,1.955 1.172,2.708c0.526,0.754 1.195,1.337 2.005,1.749c0.81,0.412 1.756,0.619 2.836,0.619c1.365,-0 2.737,-0.498 4.116,-1.493c1.379,-0.995 2.851,-2.446 4.415,-4.351l-0,-25.292c-0,-0.284 0.078,-0.533 0.234,-0.746c0.156,-0.213 0.441,-0.391 0.853,-0.533c0.412,-0.142 0.96,-0.249 1.642,-0.32c0.683,-0.071 1.55,-0.107 2.602,-0.107c1.052,0 1.919,0.036 2.602,0.107c0.682,0.071 1.222,0.178 1.62,0.32c0.398,0.142 0.683,0.32 0.853,0.533c0.171,0.213 0.256,0.462 0.256,0.746l0,38.045Z" style="fill:#f5f5f5;fill-rule:nonzero;"/><path d="M660.615,47.172c0,2.161 -0.405,4.066 -1.215,5.715c-0.811,1.649 -1.955,3.028 -3.434,4.137c-1.478,1.109 -3.227,1.941 -5.246,2.495c-2.019,0.555 -4.208,0.832 -6.568,0.832c-1.422,0 -2.779,-0.107 -4.073,-0.32c-1.294,-0.213 -2.453,-0.483 -3.476,-0.81c-1.024,-0.327 -1.877,-0.661 -2.559,-1.002c-0.683,-0.342 -1.18,-0.662 -1.493,-0.96c-0.313,-0.299 -0.555,-0.768 -0.725,-1.408c-0.171,-0.639 -0.256,-1.585 -0.256,-2.836c-0,-0.824 0.028,-1.486 0.085,-1.983c0.057,-0.498 0.142,-0.896 0.256,-1.194c0.114,-0.299 0.256,-0.498 0.427,-0.597c0.17,-0.1 0.383,-0.15 0.639,-0.15c0.313,0 0.775,0.178 1.387,0.533c0.611,0.356 1.371,0.747 2.281,1.173c0.91,0.427 1.969,0.825 3.178,1.195c1.208,0.369 2.58,0.554 4.116,0.554c0.966,-0 1.827,-0.1 2.58,-0.299c0.754,-0.199 1.408,-0.483 1.962,-0.853c0.554,-0.369 0.974,-0.838 1.258,-1.407c0.285,-0.569 0.427,-1.223 0.427,-1.962c-0,-0.853 -0.263,-1.585 -0.789,-2.197c-0.526,-0.611 -1.223,-1.144 -2.09,-1.599c-0.867,-0.455 -1.848,-0.881 -2.943,-1.279c-1.095,-0.399 -2.218,-0.839 -3.37,-1.323c-1.151,-0.483 -2.274,-1.038 -3.369,-1.663c-1.095,-0.626 -2.076,-1.393 -2.943,-2.303c-0.867,-0.91 -1.564,-2.005 -2.09,-3.284c-0.526,-1.28 -0.789,-2.815 -0.789,-4.607c0,-1.819 0.356,-3.49 1.066,-5.011c0.711,-1.521 1.735,-2.822 3.071,-3.903c1.337,-1.08 2.965,-1.919 4.884,-2.516c1.919,-0.597 4.073,-0.896 6.461,-0.896c1.195,0 2.353,0.086 3.477,0.256c1.123,0.171 2.139,0.384 3.049,0.64c0.91,0.256 1.678,0.533 2.303,0.832c0.626,0.298 1.074,0.554 1.344,0.767c0.27,0.214 0.462,0.427 0.575,0.64c0.114,0.213 0.2,0.469 0.256,0.768c0.057,0.298 0.107,0.668 0.15,1.109c0.042,0.44 0.064,0.988 0.064,1.642c-0,0.768 -0.022,1.393 -0.064,1.876c-0.043,0.484 -0.114,0.868 -0.214,1.152c-0.099,0.284 -0.234,0.476 -0.405,0.576c-0.17,0.099 -0.369,0.149 -0.597,0.149c-0.256,0 -0.654,-0.149 -1.194,-0.448c-0.54,-0.298 -1.216,-0.618 -2.026,-0.959c-0.81,-0.342 -1.749,-0.662 -2.815,-0.96c-1.066,-0.299 -2.282,-0.448 -3.647,-0.448c-0.966,0 -1.805,0.1 -2.516,0.299c-0.711,0.199 -1.294,0.483 -1.749,0.853c-0.455,0.369 -0.796,0.803 -1.023,1.301c-0.228,0.497 -0.342,1.03 -0.342,1.599c0,0.881 0.271,1.621 0.811,2.218c0.54,0.597 1.251,1.123 2.132,1.578c0.882,0.455 1.884,0.881 3.007,1.279c1.123,0.398 2.261,0.832 3.412,1.301c1.152,0.469 2.289,1.017 3.412,1.642c1.124,0.626 2.126,1.394 3.007,2.303c0.882,0.91 1.593,1.998 2.133,3.263c0.54,1.266 0.81,2.765 0.81,4.5Z" style="fill:#f5f5f5;fill-rule:nonzero;"/><path d="M683.792,57.92c-0,0.284 -0.086,0.533 -0.256,0.746c-0.171,0.214 -0.462,0.391 -0.875,0.534c-0.412,0.142 -0.959,0.248 -1.642,0.319c-0.682,0.071 -1.549,0.107 -2.601,0.107c-1.052,0 -1.92,-0.036 -2.602,-0.107c-0.682,-0.071 -1.23,-0.177 -1.642,-0.319c-0.412,-0.143 -0.704,-0.32 -0.874,-0.534c-0.171,-0.213 -0.256,-0.462 -0.256,-0.746l-0,-37.959c-0,-0.285 0.085,-0.533 0.256,-0.747c0.17,-0.213 0.462,-0.398 0.874,-0.554c0.412,-0.157 0.96,-0.277 1.642,-0.363c0.682,-0.085 1.55,-0.128 2.602,-0.128c1.052,0 1.919,0.043 2.601,0.128c0.683,0.086 1.23,0.206 1.642,0.363c0.413,0.156 0.704,0.341 0.875,0.554c0.17,0.214 0.256,0.462 0.256,0.747l-0,37.959Zm0.81,-50.925c0,2.161 -0.441,3.654 -1.322,4.478c-0.882,0.825 -2.516,1.237 -4.905,1.237c-2.417,-0 -4.045,-0.398 -4.883,-1.194c-0.839,-0.796 -1.259,-2.232 -1.259,-4.308c0,-2.161 0.434,-3.661 1.301,-4.5c0.867,-0.838 2.509,-1.258 4.926,-1.258c2.389,0 4.01,0.405 4.863,1.216c0.853,0.81 1.279,2.253 1.279,4.329Z" style="fill:#f5f5f5;fill-rule:nonzero;"/><path d="M734.222,57.963c0,0.284 -0.078,0.533 -0.234,0.746c-0.157,0.213 -0.441,0.384 -0.853,0.512c-0.413,0.128 -0.974,0.227 -1.685,0.298c-0.711,0.071 -1.635,0.107 -2.772,0.107c-1.166,0 -2.112,-0.028 -2.837,-0.085c-0.725,-0.057 -1.322,-0.15 -1.791,-0.278c-0.469,-0.127 -0.832,-0.305 -1.088,-0.533c-0.256,-0.227 -0.483,-0.526 -0.682,-0.895l-12.667,-20.046l-0,20.131c-0,0.284 -0.086,0.533 -0.256,0.746c-0.171,0.214 -0.462,0.391 -0.875,0.534c-0.412,0.142 -0.959,0.248 -1.642,0.319c-0.682,0.071 -1.549,0.107 -2.601,0.107c-1.052,0 -1.92,-0.036 -2.602,-0.107c-0.683,-0.071 -1.23,-0.177 -1.642,-0.319c-0.412,-0.143 -0.704,-0.32 -0.875,-0.534c-0.17,-0.213 -0.255,-0.462 -0.255,-0.746l-0,-56.086c-0,-0.284 0.085,-0.54 0.255,-0.768c0.171,-0.227 0.463,-0.419 0.875,-0.576c0.412,-0.156 0.959,-0.277 1.642,-0.362c0.682,-0.085 1.55,-0.128 2.602,-0.128c1.052,0 1.919,0.043 2.601,0.128c0.683,0.085 1.23,0.206 1.642,0.362c0.413,0.157 0.704,0.349 0.875,0.576c0.17,0.228 0.256,0.484 0.256,0.768l-0,33.396l11.259,-15.141c0.228,-0.342 0.484,-0.64 0.768,-0.896c0.285,-0.256 0.661,-0.455 1.13,-0.597c0.47,-0.142 1.052,-0.249 1.749,-0.32c0.697,-0.071 1.585,-0.107 2.666,-0.107c1.052,0 1.94,0.036 2.665,0.107c0.726,0.071 1.308,0.178 1.749,0.32c0.441,0.142 0.747,0.32 0.917,0.533c0.171,0.213 0.256,0.476 0.256,0.789c0,0.427 -0.107,0.881 -0.32,1.365c-0.213,0.483 -0.533,0.995 -0.959,1.535l-11.132,12.625l12.88,19.918c0.341,0.569 0.59,1.059 0.747,1.471c0.156,0.413 0.234,0.789 0.234,1.131Z" style="fill:#f5f5f5;fill-rule:nonzero;"/><path d="M36.527,106.989c-0,1.064 -0.135,2.045 -0.406,2.942c-0.27,0.898 -0.649,1.705 -1.137,2.42c-0.488,0.715 -1.077,1.342 -1.766,1.883c-0.688,0.54 -1.464,0.994 -2.327,1.36c-0.863,0.366 -1.787,0.641 -2.773,0.824c-0.985,0.183 -2.114,0.274 -3.387,0.274l-8.839,0c-0.402,0 -0.781,-0.135 -1.138,-0.405c-0.358,-0.27 -0.536,-0.746 -0.536,-1.426l-0,-30.181c-0,-0.68 0.178,-1.155 0.536,-1.425c0.357,-0.271 0.736,-0.406 1.138,-0.406l7.689,0c2.022,0 3.679,0.192 4.969,0.576c1.29,0.383 2.367,0.941 3.23,1.673c0.863,0.733 1.512,1.631 1.948,2.694c0.436,1.064 0.654,2.267 0.654,3.61c0,0.802 -0.096,1.569 -0.287,2.301c-0.192,0.732 -0.476,1.408 -0.85,2.027c-0.375,0.619 -0.846,1.173 -1.413,1.661c-0.566,0.488 -1.216,0.889 -1.948,1.203c0.924,0.174 1.787,0.492 2.589,0.954c0.802,0.463 1.504,1.051 2.105,1.766c0.602,0.715 1.077,1.552 1.426,2.511c0.348,0.959 0.523,2.013 0.523,3.164Zm-6.774,-15.143c0,-0.819 -0.113,-1.56 -0.34,-2.223c-0.227,-0.662 -0.584,-1.225 -1.072,-1.687c-0.488,-0.462 -1.125,-0.815 -1.91,-1.059c-0.784,-0.244 -1.822,-0.366 -3.112,-0.366l-4.655,-0l-0,10.958l5.126,0c1.168,0 2.11,-0.152 2.825,-0.457c0.714,-0.306 1.307,-0.715 1.778,-1.23c0.471,-0.514 0.815,-1.116 1.033,-1.804c0.218,-0.689 0.327,-1.4 0.327,-2.132Zm2.04,15.405c0,-1.012 -0.161,-1.901 -0.484,-2.668c-0.322,-0.767 -0.793,-1.412 -1.412,-1.935c-0.619,-0.523 -1.395,-0.92 -2.328,-1.19c-0.933,-0.271 -2.105,-0.406 -3.518,-0.406l-5.387,0l-0,11.926l6.538,0c1.029,0 1.927,-0.122 2.694,-0.366c0.767,-0.244 1.443,-0.606 2.027,-1.085c0.584,-0.48 1.042,-1.077 1.373,-1.792c0.331,-0.715 0.497,-1.543 0.497,-2.484Z" style="fill:#f5f5f5;fill-rule:nonzero;"/><path d="M65.163,116.038c0,0.14 -0.03,0.258 -0.091,0.353c-0.061,0.096 -0.17,0.179 -0.327,0.249c-0.157,0.07 -0.362,0.122 -0.615,0.157c-0.253,0.035 -0.562,0.052 -0.928,0.052c-0.401,0 -0.728,-0.017 -0.981,-0.052c-0.253,-0.035 -0.454,-0.087 -0.602,-0.157c-0.148,-0.07 -0.248,-0.153 -0.3,-0.249c-0.053,-0.095 -0.079,-0.213 -0.079,-0.353l0,-3.112c-1.343,1.482 -2.668,2.563 -3.975,3.243c-1.308,0.68 -2.633,1.02 -3.976,1.02c-1.569,0 -2.89,-0.261 -3.962,-0.784c-1.072,-0.524 -1.94,-1.234 -2.602,-2.132c-0.663,-0.898 -1.138,-1.944 -1.426,-3.138c-0.287,-1.195 -0.431,-2.646 -0.431,-4.355l-0,-14.28c-0,-0.139 0.03,-0.257 0.091,-0.353c0.061,-0.096 0.179,-0.183 0.353,-0.262c0.175,-0.078 0.401,-0.13 0.68,-0.157c0.279,-0.026 0.628,-0.039 1.047,-0.039c0.418,0 0.767,0.013 1.046,0.039c0.279,0.027 0.501,0.079 0.667,0.157c0.165,0.079 0.283,0.166 0.353,0.262c0.069,0.096 0.104,0.214 0.104,0.353l0,13.705c0,1.377 0.101,2.48 0.301,3.308c0.201,0.828 0.506,1.534 0.915,2.118c0.41,0.585 0.929,1.038 1.557,1.36c0.627,0.323 1.36,0.484 2.197,0.484c1.081,0 2.157,-0.383 3.23,-1.15c1.072,-0.768 2.21,-1.892 3.413,-3.374l-0,-16.451c-0,-0.139 0.03,-0.257 0.091,-0.353c0.061,-0.096 0.179,-0.183 0.353,-0.262c0.175,-0.078 0.397,-0.13 0.667,-0.157c0.27,-0.026 0.623,-0.039 1.059,-0.039c0.419,0 0.768,0.013 1.047,0.039c0.278,0.027 0.496,0.079 0.653,0.157c0.157,0.079 0.275,0.166 0.353,0.262c0.079,0.096 0.118,0.214 0.118,0.353l0,23.538Z" style="fill:#f5f5f5;fill-rule:nonzero;"/><path d="M87.522,114.312c0,0.506 -0.034,0.907 -0.104,1.203c-0.07,0.297 -0.174,0.515 -0.314,0.654c-0.139,0.14 -0.349,0.27 -0.628,0.392c-0.279,0.123 -0.597,0.223 -0.954,0.301c-0.358,0.079 -0.737,0.144 -1.138,0.196c-0.401,0.053 -0.802,0.079 -1.203,0.079c-1.221,-0 -2.267,-0.161 -3.138,-0.484c-0.872,-0.323 -1.587,-0.811 -2.145,-1.465c-0.558,-0.653 -0.963,-1.482 -1.216,-2.484c-0.253,-1.003 -0.379,-2.184 -0.379,-3.544l-0,-13.757l-3.296,0c-0.261,0 -0.471,-0.139 -0.628,-0.418c-0.156,-0.279 -0.235,-0.733 -0.235,-1.36c0,-0.332 0.022,-0.611 0.065,-0.837c0.044,-0.227 0.101,-0.414 0.17,-0.563c0.07,-0.148 0.162,-0.252 0.275,-0.313c0.113,-0.061 0.24,-0.092 0.379,-0.092l3.27,0l-0,-5.597c-0,-0.122 0.03,-0.235 0.091,-0.34c0.061,-0.105 0.174,-0.196 0.34,-0.275c0.166,-0.078 0.388,-0.135 0.667,-0.17c0.279,-0.034 0.628,-0.052 1.046,-0.052c0.436,0 0.793,0.018 1.072,0.052c0.279,0.035 0.497,0.092 0.654,0.17c0.157,0.079 0.271,0.17 0.34,0.275c0.07,0.105 0.105,0.218 0.105,0.34l-0,5.597l6.041,0c0.14,0 0.262,0.031 0.367,0.092c0.104,0.061 0.196,0.165 0.274,0.313c0.079,0.149 0.135,0.336 0.17,0.563c0.035,0.226 0.052,0.505 0.052,0.837c0,0.627 -0.078,1.081 -0.235,1.36c-0.157,0.279 -0.366,0.418 -0.628,0.418l-6.041,0l-0,13.129c-0,1.622 0.24,2.847 0.719,3.675c0.48,0.828 1.338,1.242 2.576,1.242c0.401,0 0.759,-0.039 1.073,-0.118c0.313,-0.078 0.592,-0.161 0.837,-0.248c0.244,-0.087 0.453,-0.17 0.627,-0.248c0.175,-0.079 0.331,-0.118 0.471,-0.118c0.087,-0 0.17,0.022 0.248,0.065c0.079,0.044 0.14,0.127 0.183,0.249c0.044,0.122 0.083,0.287 0.118,0.497c0.035,0.209 0.052,0.47 0.052,0.784Z" style="fill:#f5f5f5;fill-rule:nonzero;"/><path d="M99.682,116.038c-0,0.14 -0.035,0.258 -0.105,0.353c-0.069,0.096 -0.183,0.179 -0.34,0.249c-0.157,0.07 -0.375,0.122 -0.654,0.157c-0.279,0.035 -0.636,0.052 -1.072,0.052c-0.418,0 -0.767,-0.017 -1.046,-0.052c-0.279,-0.035 -0.501,-0.087 -0.667,-0.157c-0.166,-0.07 -0.279,-0.153 -0.34,-0.249c-0.061,-0.095 -0.091,-0.213 -0.091,-0.353l-0,-23.538c-0,-0.122 0.03,-0.235 0.091,-0.34c0.061,-0.105 0.174,-0.192 0.34,-0.262c0.166,-0.069 0.388,-0.122 0.667,-0.156c0.279,-0.035 0.628,-0.053 1.046,-0.053c0.436,0 0.793,0.018 1.072,0.053c0.279,0.034 0.497,0.087 0.654,0.156c0.157,0.07 0.271,0.157 0.34,0.262c0.07,0.105 0.105,0.218 0.105,0.34l-0,23.538Zm0.497,-31.489c-0,1.012 -0.192,1.7 -0.576,2.066c-0.383,0.367 -1.089,0.55 -2.118,0.55c-1.011,-0 -1.704,-0.179 -2.079,-0.537c-0.375,-0.357 -0.563,-1.033 -0.563,-2.026c0,-1.012 0.192,-1.7 0.576,-2.067c0.383,-0.366 1.09,-0.549 2.118,-0.549c1.012,0 1.705,0.179 2.08,0.536c0.374,0.358 0.562,1.033 0.562,2.027Z" style="fill:#f5f5f5;fill-rule:nonzero;"/><path d="M129.129,116.012c-0,0.14 -0.035,0.262 -0.105,0.366c-0.069,0.105 -0.187,0.192 -0.353,0.262c-0.165,0.07 -0.396,0.122 -0.693,0.157c-0.296,0.035 -0.671,0.052 -1.124,0.052c-0.471,0 -0.859,-0.013 -1.164,-0.039c-0.305,-0.026 -0.563,-0.07 -0.772,-0.131c-0.209,-0.061 -0.379,-0.148 -0.51,-0.261c-0.131,-0.114 -0.248,-0.249 -0.353,-0.406l-9.938,-13.024l-0,13.05c-0,0.14 -0.035,0.258 -0.105,0.353c-0.07,0.096 -0.183,0.179 -0.34,0.249c-0.157,0.07 -0.375,0.122 -0.654,0.157c-0.279,0.035 -0.636,0.052 -1.072,0.052c-0.419,0 -0.767,-0.017 -1.046,-0.052c-0.279,-0.035 -0.502,-0.087 -0.667,-0.157c-0.166,-0.07 -0.279,-0.153 -0.34,-0.249c-0.061,-0.095 -0.092,-0.213 -0.092,-0.353l0,-34.941c0,-0.14 0.031,-0.262 0.092,-0.366c0.061,-0.105 0.174,-0.192 0.34,-0.262c0.165,-0.069 0.388,-0.122 0.667,-0.157c0.279,-0.035 0.627,-0.052 1.046,-0.052c0.436,0 0.793,0.017 1.072,0.052c0.279,0.035 0.497,0.088 0.654,0.157c0.157,0.07 0.27,0.157 0.34,0.262c0.07,0.104 0.105,0.226 0.105,0.366l-0,21.289l8.892,-9.781c0.139,-0.175 0.288,-0.319 0.445,-0.432c0.157,-0.113 0.344,-0.209 0.562,-0.288c0.218,-0.078 0.475,-0.13 0.771,-0.157c0.297,-0.026 0.654,-0.039 1.073,-0.039c0.436,0 0.802,0.013 1.098,0.039c0.297,0.027 0.536,0.07 0.719,0.131c0.183,0.061 0.314,0.14 0.393,0.236c0.078,0.096 0.117,0.222 0.117,0.379c0,0.209 -0.056,0.418 -0.17,0.628c-0.113,0.209 -0.3,0.453 -0.562,0.732l-8.526,8.526l9.572,12.423c0.227,0.296 0.388,0.536 0.484,0.719c0.096,0.183 0.144,0.353 0.144,0.51Z" style="fill:#f5f5f5;fill-rule:nonzero;"/><path d="M172.435,104.008c0,1.918 -0.252,3.683 -0.758,5.296c-0.506,1.613 -1.26,3.003 -2.262,4.171c-1.003,1.169 -2.258,2.08 -3.767,2.733c-1.508,0.654 -3.256,0.981 -5.243,0.981c-1.936,0 -3.623,-0.288 -5.061,-0.863c-1.439,-0.575 -2.637,-1.412 -3.596,-2.511c-0.959,-1.098 -1.674,-2.432 -2.145,-4.001c-0.471,-1.569 -0.706,-3.348 -0.706,-5.336c0,-1.918 0.248,-3.683 0.745,-5.296c0.497,-1.613 1.247,-3.003 2.25,-4.171c1.002,-1.168 2.253,-2.075 3.753,-2.72c1.499,-0.645 3.251,-0.968 5.257,-0.968c1.935,0 3.622,0.288 5.06,0.863c1.439,0.576 2.638,1.412 3.596,2.511c0.959,1.098 1.679,2.432 2.158,4.001c0.48,1.57 0.719,3.339 0.719,5.31Zm-4.55,0.287c-0,-1.272 -0.118,-2.476 -0.353,-3.609c-0.236,-1.133 -0.624,-2.127 -1.164,-2.981c-0.541,-0.855 -1.273,-1.53 -2.197,-2.027c-0.924,-0.497 -2.075,-0.746 -3.452,-0.746c-1.273,0 -2.367,0.227 -3.283,0.68c-0.915,0.454 -1.669,1.094 -2.262,1.923c-0.593,0.828 -1.033,1.809 -1.321,2.942c-0.288,1.133 -0.431,2.371 -0.431,3.714c-0,1.29 0.117,2.502 0.353,3.635c0.235,1.133 0.627,2.123 1.177,2.969c0.549,0.845 1.286,1.516 2.21,2.013c0.924,0.497 2.074,0.746 3.452,0.746c1.255,-0 2.345,-0.227 3.269,-0.68c0.924,-0.454 1.683,-1.09 2.275,-1.909c0.593,-0.82 1.029,-1.796 1.308,-2.93c0.279,-1.133 0.419,-2.38 0.419,-3.74Z" style="fill:#f5f5f5;fill-rule:nonzero;"/><path d="M200.601,93.572c-0,0.611 -0.083,1.051 -0.249,1.321c-0.165,0.27 -0.379,0.405 -0.64,0.405l-3.374,0c0.61,0.628 1.037,1.321 1.281,2.08c0.244,0.758 0.367,1.547 0.367,2.367c-0,1.36 -0.218,2.563 -0.654,3.609c-0.436,1.046 -1.06,1.931 -1.87,2.654c-0.811,0.724 -1.774,1.278 -2.89,1.661c-1.116,0.384 -2.354,0.576 -3.714,0.576c-0.959,-0 -1.87,-0.127 -2.733,-0.38c-0.863,-0.252 -1.53,-0.571 -2.001,-0.954c-0.314,0.314 -0.571,0.671 -0.771,1.072c-0.201,0.401 -0.301,0.863 -0.301,1.386c-0,0.61 0.283,1.116 0.85,1.517c0.566,0.401 1.32,0.619 2.262,0.654l6.146,0.261c1.168,0.035 2.241,0.197 3.217,0.484c0.976,0.288 1.822,0.698 2.537,1.23c0.715,0.531 1.273,1.185 1.674,1.961c0.401,0.776 0.601,1.678 0.601,2.707c0,1.081 -0.226,2.11 -0.68,3.086c-0.453,0.977 -1.146,1.835 -2.079,2.576c-0.933,0.741 -2.123,1.325 -3.57,1.753c-1.447,0.427 -3.156,0.64 -5.126,0.64c-1.9,0 -3.518,-0.161 -4.851,-0.483c-1.334,-0.323 -2.428,-0.763 -3.283,-1.321c-0.854,-0.558 -1.473,-1.225 -1.857,-2.001c-0.383,-0.776 -0.575,-1.617 -0.575,-2.524c-0,-0.575 0.07,-1.133 0.209,-1.674c0.14,-0.54 0.353,-1.055 0.641,-1.543c0.288,-0.488 0.645,-0.954 1.072,-1.399c0.427,-0.445 0.92,-0.885 1.478,-1.321c-0.854,-0.436 -1.487,-0.985 -1.896,-1.647c-0.41,-0.663 -0.615,-1.378 -0.615,-2.145c0,-1.064 0.218,-2.014 0.654,-2.851c0.436,-0.837 0.976,-1.586 1.622,-2.249c-0.541,-0.645 -0.968,-1.373 -1.282,-2.184c-0.314,-0.811 -0.471,-1.791 -0.471,-2.942c0,-1.343 0.227,-2.546 0.68,-3.609c0.454,-1.064 1.081,-1.962 1.883,-2.694c0.802,-0.733 1.766,-1.295 2.89,-1.687c1.125,-0.392 2.35,-0.589 3.675,-0.589c0.715,0 1.382,0.04 2.001,0.118c0.619,0.079 1.198,0.188 1.739,0.327l7.114,0c0.296,0 0.518,0.144 0.667,0.432c0.148,0.287 0.222,0.727 0.222,1.32Zm-6.748,6.199c0,-1.604 -0.44,-2.855 -1.321,-3.753c-0.88,-0.898 -2.131,-1.347 -3.753,-1.347c-0.837,-0 -1.564,0.139 -2.183,0.418c-0.619,0.279 -1.134,0.663 -1.544,1.151c-0.409,0.488 -0.714,1.051 -0.915,1.687c-0.2,0.636 -0.301,1.303 -0.301,2.001c0,1.551 0.441,2.772 1.321,3.661c0.881,0.889 2.114,1.334 3.701,1.334c0.854,0 1.595,-0.135 2.223,-0.405c0.628,-0.271 1.146,-0.645 1.556,-1.125c0.41,-0.479 0.715,-1.033 0.915,-1.661c0.201,-0.627 0.301,-1.281 0.301,-1.961Zm2.171,18.647c0,-1.011 -0.414,-1.791 -1.242,-2.34c-0.829,-0.55 -1.949,-0.842 -3.361,-0.877l-6.094,-0.209c-0.558,0.436 -1.016,0.85 -1.373,1.243c-0.357,0.392 -0.641,0.767 -0.85,1.124c-0.209,0.358 -0.353,0.711 -0.431,1.059c-0.079,0.349 -0.118,0.707 -0.118,1.073c-0,1.133 0.575,1.992 1.726,2.576c1.151,0.584 2.755,0.876 4.812,0.876c1.308,-0 2.402,-0.126 3.283,-0.379c0.88,-0.253 1.591,-0.589 2.131,-1.007c0.541,-0.419 0.929,-0.898 1.164,-1.439c0.235,-0.54 0.353,-1.107 0.353,-1.7Z" style="fill:#f5f5f5;fill-rule:nonzero;"/><path d="M241.841,92.448c0,0.069 -0.035,0.383 -0.052,0.47c-0.018,0.088 -0.122,0.506 -0.157,0.628l-8.029,22.362c-0.07,0.191 -0.162,0.348 -0.275,0.47c-0.113,0.122 -0.283,0.218 -0.51,0.288c-0.227,0.07 -0.514,0.118 -0.863,0.144c-0.349,0.026 -0.785,0.039 -1.308,0.039c-0.523,0 -0.959,-0.017 -1.307,-0.052c-0.349,-0.035 -0.632,-0.087 -0.85,-0.157c-0.218,-0.07 -0.388,-0.166 -0.51,-0.288c-0.122,-0.122 -0.218,-0.27 -0.288,-0.444l-8.003,-22.362c-0.07,-0.209 -0.126,-0.392 -0.17,-0.549c-0.044,-0.157 -0.07,-0.275 -0.078,-0.353c-0.009,-0.079 -0.014,-0.144 -0.014,-0.196c0,-0.14 0.035,-0.262 0.105,-0.366c0.07,-0.105 0.187,-0.188 0.353,-0.249c0.166,-0.061 0.384,-0.1 0.654,-0.118c0.27,-0.017 0.606,-0.026 1.007,-0.026c0.506,0 0.911,0.013 1.216,0.039c0.305,0.027 0.541,0.075 0.706,0.144c0.166,0.07 0.288,0.157 0.366,0.262c0.079,0.104 0.153,0.235 0.223,0.392l6.643,19.406l0.104,0.314l0.079,-0.314l6.564,-19.406c0.035,-0.157 0.096,-0.288 0.183,-0.392c0.088,-0.105 0.214,-0.192 0.38,-0.262c0.165,-0.069 0.392,-0.117 0.68,-0.144c0.287,-0.026 0.667,-0.039 1.137,-0.039c0.401,0 0.733,0.009 0.994,0.026c0.262,0.018 0.467,0.061 0.615,0.131c0.148,0.07 0.253,0.153 0.314,0.249c0.061,0.096 0.091,0.213 0.091,0.353Z" style="fill:#f5f5f5;fill-rule:nonzero;"/><path d="M282.927,103.249c-0,0.68 -0.17,1.164 -0.51,1.452c-0.34,0.287 -0.72,0.431 -1.138,0.431l-15.457,0c0,1.308 0.135,2.485 0.406,3.531c0.27,1.046 0.71,1.944 1.32,2.694c0.611,0.75 1.408,1.325 2.393,1.726c0.985,0.401 2.193,0.602 3.623,0.602c1.098,-0 2.079,-0.092 2.942,-0.275c0.863,-0.183 1.613,-0.388 2.249,-0.615c0.637,-0.226 1.164,-0.431 1.582,-0.614c0.419,-0.183 0.724,-0.275 0.916,-0.275c0.122,0 0.227,0.031 0.314,0.092c0.087,0.061 0.161,0.152 0.222,0.274c0.061,0.122 0.105,0.292 0.131,0.51c0.026,0.218 0.039,0.484 0.039,0.798c-0,0.227 -0.009,0.423 -0.026,0.588c-0.018,0.166 -0.039,0.314 -0.066,0.445c-0.026,0.131 -0.069,0.248 -0.13,0.353c-0.061,0.105 -0.14,0.205 -0.236,0.301c-0.096,0.096 -0.379,0.253 -0.85,0.471c-0.47,0.218 -1.081,0.431 -1.83,0.64c-0.75,0.21 -1.613,0.397 -2.59,0.563c-0.976,0.165 -2.022,0.248 -3.138,0.248c-1.203,0 -2.289,-0.096 -3.256,-0.288c-0.968,-0.191 -1.84,-0.479 -2.616,-0.863c-0.776,-0.383 -1.464,-0.845 -2.066,-1.386c-0.601,-0.54 -1.129,-1.159 -1.582,-1.857c-0.575,0.68 -1.194,1.291 -1.857,1.831c-0.663,0.541 -1.369,1.007 -2.118,1.399c-0.75,0.393 -1.535,0.685 -2.354,0.876c-0.82,0.192 -1.683,0.288 -2.59,0.288c-1.237,0 -2.358,-0.161 -3.36,-0.484c-1.003,-0.322 -1.857,-0.789 -2.563,-1.399c-0.707,-0.61 -1.256,-1.36 -1.648,-2.249c-0.392,-0.889 -0.589,-1.892 -0.589,-3.008c0,-1.342 0.271,-2.502 0.811,-3.478c0.541,-0.977 1.317,-1.787 2.328,-2.433c1.011,-0.645 2.249,-1.129 3.714,-1.451c1.464,-0.323 3.112,-0.484 4.943,-0.484l3.243,0l-0,-1.831c-0,-0.906 -0.096,-1.708 -0.288,-2.406c-0.192,-0.697 -0.501,-1.277 -0.928,-1.739c-0.427,-0.462 -0.981,-0.811 -1.661,-1.046c-0.68,-0.236 -1.517,-0.353 -2.511,-0.353c-1.063,-0 -2.018,0.126 -2.864,0.379c-0.845,0.253 -1.591,0.532 -2.236,0.837c-0.645,0.305 -1.185,0.584 -1.621,0.837c-0.436,0.253 -0.759,0.379 -0.968,0.379c-0.139,-0 -0.257,-0.035 -0.353,-0.105c-0.096,-0.069 -0.179,-0.174 -0.249,-0.313c-0.069,-0.14 -0.122,-0.319 -0.156,-0.537c-0.035,-0.218 -0.053,-0.457 -0.053,-0.719c0,-0.436 0.031,-0.78 0.092,-1.033c0.061,-0.253 0.209,-0.492 0.444,-0.719c0.236,-0.227 0.641,-0.493 1.217,-0.798c0.575,-0.305 1.238,-0.584 1.987,-0.837c0.75,-0.253 1.569,-0.462 2.459,-0.627c0.889,-0.166 1.787,-0.249 2.694,-0.249c1.115,0 2.101,0.096 2.955,0.288c0.854,0.192 1.6,0.462 2.236,0.811c0.636,0.348 1.177,0.771 1.622,1.268c0.444,0.497 0.806,1.042 1.085,1.635c0.837,-1.291 1.97,-2.28 3.4,-2.969c1.43,-0.689 3.051,-1.033 4.865,-1.033c1.795,0 3.339,0.297 4.629,0.889c1.29,0.593 2.349,1.395 3.177,2.406c0.829,1.012 1.439,2.193 1.831,3.544c0.393,1.352 0.589,2.786 0.589,4.303l-0,0.784Zm-4.316,-1.281c0.018,-1.134 -0.1,-2.145 -0.353,-3.034c-0.253,-0.889 -0.641,-1.648 -1.164,-2.276c-0.523,-0.627 -1.177,-1.111 -1.961,-1.451c-0.785,-0.34 -1.691,-0.51 -2.72,-0.51c-1.064,-0 -1.997,0.2 -2.799,0.601c-0.802,0.401 -1.477,0.933 -2.026,1.596c-0.55,0.662 -0.968,1.434 -1.256,2.314c-0.288,0.881 -0.458,1.801 -0.51,2.76l12.789,-0Zm-16.555,7.741c-0.192,-0.593 -0.336,-1.29 -0.432,-2.092c-0.095,-0.802 -0.143,-1.569 -0.143,-2.302l-3.636,0c-1.185,0 -2.214,0.101 -3.086,0.301c-0.872,0.201 -1.595,0.497 -2.171,0.889c-0.575,0.393 -0.998,0.863 -1.268,1.413c-0.27,0.549 -0.406,1.181 -0.406,1.896c0,1.22 0.388,2.192 1.164,2.916c0.776,0.724 1.862,1.085 3.256,1.085c1.134,0 2.241,-0.322 3.322,-0.967c1.081,-0.645 2.214,-1.692 3.4,-3.139Z" style="fill:#f5f5f5;fill-rule:nonzero;"/><path d="M305.391,94.043c-0,0.384 -0.009,0.706 -0.026,0.968c-0.018,0.261 -0.053,0.466 -0.105,0.614c-0.052,0.149 -0.118,0.262 -0.196,0.34c-0.079,0.079 -0.188,0.118 -0.327,0.118c-0.14,0 -0.31,-0.039 -0.51,-0.118c-0.201,-0.078 -0.427,-0.157 -0.68,-0.235c-0.253,-0.078 -0.536,-0.153 -0.85,-0.222c-0.314,-0.07 -0.654,-0.105 -1.02,-0.105c-0.436,0 -0.863,0.087 -1.282,0.262c-0.418,0.174 -0.858,0.462 -1.32,0.863c-0.463,0.401 -0.946,0.933 -1.452,1.595c-0.506,0.663 -1.064,1.473 -1.674,2.432l0,15.483c0,0.14 -0.035,0.258 -0.104,0.353c-0.07,0.096 -0.184,0.179 -0.34,0.249c-0.157,0.07 -0.375,0.122 -0.654,0.157c-0.279,0.035 -0.637,0.052 -1.073,0.052c-0.418,0 -0.767,-0.017 -1.046,-0.052c-0.279,-0.035 -0.501,-0.087 -0.667,-0.157c-0.165,-0.07 -0.279,-0.153 -0.34,-0.249c-0.061,-0.095 -0.091,-0.213 -0.091,-0.353l-0,-23.538c-0,-0.139 0.026,-0.257 0.078,-0.353c0.053,-0.096 0.157,-0.183 0.314,-0.262c0.157,-0.078 0.358,-0.13 0.602,-0.157c0.244,-0.026 0.566,-0.039 0.967,-0.039c0.384,0 0.702,0.013 0.955,0.039c0.253,0.027 0.449,0.079 0.588,0.157c0.14,0.079 0.24,0.166 0.301,0.262c0.061,0.096 0.092,0.214 0.092,0.353l-0,3.426c0.645,-0.941 1.251,-1.709 1.817,-2.301c0.567,-0.593 1.103,-1.06 1.609,-1.4c0.505,-0.34 1.007,-0.575 1.504,-0.706c0.497,-0.131 0.998,-0.196 1.504,-0.196c0.226,0 0.483,0.013 0.771,0.039c0.288,0.026 0.589,0.074 0.902,0.144c0.314,0.07 0.598,0.148 0.85,0.236c0.253,0.087 0.432,0.174 0.537,0.261c0.104,0.087 0.174,0.17 0.209,0.249c0.035,0.078 0.065,0.178 0.091,0.3c0.026,0.122 0.044,0.301 0.053,0.536c0.008,0.236 0.013,0.554 0.013,0.955Z" style="fill:#f5f5f5;fill-rule:nonzero;"/><path d="M331.778,116.012c-0,0.14 -0.035,0.262 -0.105,0.366c-0.07,0.105 -0.187,0.192 -0.353,0.262c-0.166,0.07 -0.397,0.122 -0.693,0.157c-0.296,0.035 -0.671,0.052 -1.125,0.052c-0.47,0 -0.858,-0.013 -1.163,-0.039c-0.306,-0.026 -0.563,-0.07 -0.772,-0.131c-0.209,-0.061 -0.379,-0.148 -0.51,-0.261c-0.131,-0.114 -0.248,-0.249 -0.353,-0.406l-9.939,-13.024l0,13.05c0,0.14 -0.034,0.258 -0.104,0.353c-0.07,0.096 -0.183,0.179 -0.34,0.249c-0.157,0.07 -0.375,0.122 -0.654,0.157c-0.279,0.035 -0.636,0.052 -1.072,0.052c-0.419,0 -0.767,-0.017 -1.046,-0.052c-0.279,-0.035 -0.502,-0.087 -0.667,-0.157c-0.166,-0.07 -0.279,-0.153 -0.34,-0.249c-0.061,-0.095 -0.092,-0.213 -0.092,-0.353l0,-34.941c0,-0.14 0.031,-0.262 0.092,-0.366c0.061,-0.105 0.174,-0.192 0.34,-0.262c0.165,-0.069 0.388,-0.122 0.667,-0.157c0.279,-0.035 0.627,-0.052 1.046,-0.052c0.436,0 0.793,0.017 1.072,0.052c0.279,0.035 0.497,0.088 0.654,0.157c0.157,0.07 0.27,0.157 0.34,0.262c0.07,0.104 0.104,0.226 0.104,0.366l0,21.289l8.893,-9.781c0.139,-0.175 0.287,-0.319 0.444,-0.432c0.157,-0.113 0.345,-0.209 0.563,-0.288c0.218,-0.078 0.475,-0.13 0.771,-0.157c0.297,-0.026 0.654,-0.039 1.073,-0.039c0.435,0 0.802,0.013 1.098,0.039c0.296,0.027 0.536,0.07 0.719,0.131c0.183,0.061 0.314,0.14 0.393,0.236c0.078,0.096 0.117,0.222 0.117,0.379c0,0.209 -0.056,0.418 -0.17,0.628c-0.113,0.209 -0.301,0.453 -0.562,0.732l-8.526,8.526l9.572,12.423c0.227,0.296 0.388,0.536 0.484,0.719c0.096,0.183 0.144,0.353 0.144,0.51Z" style="fill:#f5f5f5;fill-rule:nonzero;"/><path d="M353.222,109.631c-0,1.203 -0.223,2.275 -0.667,3.217c-0.445,0.941 -1.077,1.735 -1.896,2.38c-0.82,0.645 -1.796,1.133 -2.93,1.464c-1.133,0.332 -2.38,0.497 -3.74,0.497c-0.836,0 -1.634,-0.065 -2.393,-0.196c-0.758,-0.131 -1.438,-0.296 -2.04,-0.497c-0.601,-0.2 -1.111,-0.41 -1.53,-0.628c-0.418,-0.218 -0.723,-0.414 -0.915,-0.588c-0.192,-0.174 -0.331,-0.419 -0.418,-0.732c-0.088,-0.314 -0.131,-0.741 -0.131,-1.282c-0,-0.331 0.017,-0.61 0.052,-0.837c0.035,-0.226 0.079,-0.41 0.131,-0.549c0.052,-0.14 0.126,-0.24 0.222,-0.301c0.096,-0.061 0.205,-0.091 0.327,-0.091c0.192,-0 0.475,0.117 0.85,0.353c0.375,0.235 0.837,0.492 1.386,0.771c0.549,0.279 1.199,0.536 1.949,0.772c0.749,0.235 1.612,0.353 2.589,0.353c0.732,-0 1.395,-0.079 1.988,-0.236c0.592,-0.156 1.107,-0.387 1.543,-0.693c0.436,-0.305 0.771,-0.693 1.007,-1.163c0.235,-0.471 0.353,-1.029 0.353,-1.674c-0,-0.663 -0.17,-1.221 -0.51,-1.674c-0.34,-0.453 -0.789,-0.854 -1.347,-1.203c-0.558,-0.349 -1.186,-0.658 -1.883,-0.929c-0.698,-0.27 -1.417,-0.553 -2.158,-0.85c-0.741,-0.296 -1.465,-0.632 -2.171,-1.007c-0.706,-0.374 -1.338,-0.832 -1.896,-1.373c-0.558,-0.54 -1.007,-1.185 -1.347,-1.935c-0.34,-0.75 -0.51,-1.648 -0.51,-2.694c0,-0.924 0.179,-1.809 0.536,-2.654c0.358,-0.846 0.894,-1.587 1.609,-2.224c0.715,-0.636 1.608,-1.146 2.681,-1.53c1.072,-0.383 2.323,-0.575 3.753,-0.575c0.627,0 1.255,0.052 1.883,0.157c0.627,0.105 1.194,0.235 1.7,0.392c0.505,0.157 0.937,0.327 1.294,0.51c0.358,0.183 0.628,0.345 0.811,0.484c0.183,0.14 0.305,0.262 0.366,0.366c0.061,0.105 0.105,0.223 0.131,0.353c0.026,0.131 0.052,0.292 0.078,0.484c0.027,0.192 0.04,0.427 0.04,0.706c-0,0.297 -0.013,0.554 -0.04,0.772c-0.026,0.218 -0.069,0.397 -0.13,0.536c-0.061,0.14 -0.135,0.24 -0.223,0.301c-0.087,0.061 -0.183,0.091 -0.287,0.091c-0.157,0 -0.384,-0.096 -0.68,-0.287c-0.297,-0.192 -0.68,-0.397 -1.151,-0.615c-0.471,-0.218 -1.024,-0.423 -1.661,-0.615c-0.636,-0.191 -1.364,-0.287 -2.184,-0.287c-0.732,-0 -1.377,0.083 -1.935,0.248c-0.558,0.166 -1.016,0.401 -1.373,0.706c-0.358,0.306 -0.628,0.667 -0.811,1.086c-0.183,0.418 -0.275,0.872 -0.275,1.36c0,0.68 0.175,1.251 0.524,1.713c0.348,0.462 0.802,0.867 1.36,1.216c0.557,0.349 1.194,0.663 1.909,0.942c0.715,0.278 1.443,0.566 2.184,0.863c0.741,0.296 1.473,0.627 2.197,0.993c0.723,0.367 1.364,0.811 1.922,1.334c0.558,0.523 1.007,1.151 1.347,1.883c0.34,0.733 0.51,1.604 0.51,2.616Z" style="fill:#f5f5f5;fill-rule:nonzero;"/><path d="M373.175,114.312c-0,0.506 -0.035,0.907 -0.105,1.203c-0.069,0.297 -0.174,0.515 -0.314,0.654c-0.139,0.14 -0.348,0.27 -0.627,0.392c-0.279,0.123 -0.597,0.223 -0.955,0.301c-0.357,0.079 -0.736,0.144 -1.137,0.196c-0.402,0.053 -0.803,0.079 -1.204,0.079c-1.22,-0 -2.266,-0.161 -3.138,-0.484c-0.872,-0.323 -1.587,-0.811 -2.145,-1.465c-0.558,-0.653 -0.963,-1.482 -1.216,-2.484c-0.253,-1.003 -0.379,-2.184 -0.379,-3.544l-0,-13.757l-3.295,0c-0.262,0 -0.471,-0.139 -0.628,-0.418c-0.157,-0.279 -0.235,-0.733 -0.235,-1.36c-0,-0.332 0.021,-0.611 0.065,-0.837c0.044,-0.227 0.1,-0.414 0.17,-0.563c0.07,-0.148 0.161,-0.252 0.275,-0.313c0.113,-0.061 0.239,-0.092 0.379,-0.092l3.269,0l-0,-5.597c-0,-0.122 0.031,-0.235 0.092,-0.34c0.061,-0.105 0.174,-0.196 0.34,-0.275c0.165,-0.078 0.387,-0.135 0.666,-0.17c0.279,-0.034 0.628,-0.052 1.047,-0.052c0.435,0 0.793,0.018 1.072,0.052c0.279,0.035 0.497,0.092 0.654,0.17c0.157,0.079 0.27,0.17 0.34,0.275c0.069,0.105 0.104,0.218 0.104,0.34l0,5.597l6.042,0c0.139,0 0.261,0.031 0.366,0.092c0.105,0.061 0.196,0.165 0.275,0.313c0.078,0.149 0.135,0.336 0.17,0.563c0.035,0.226 0.052,0.505 0.052,0.837c-0,0.627 -0.079,1.081 -0.235,1.36c-0.157,0.279 -0.367,0.418 -0.628,0.418l-6.042,0l0,13.129c0,1.622 0.24,2.847 0.72,3.675c0.479,0.828 1.338,1.242 2.576,1.242c0.401,0 0.758,-0.039 1.072,-0.118c0.314,-0.078 0.593,-0.161 0.837,-0.248c0.244,-0.087 0.453,-0.17 0.628,-0.248c0.174,-0.079 0.331,-0.118 0.47,-0.118c0.088,-0 0.17,0.022 0.249,0.065c0.078,0.044 0.139,0.127 0.183,0.249c0.044,0.122 0.083,0.287 0.118,0.497c0.035,0.209 0.052,0.47 0.052,0.784Z" style="fill:#f5f5f5;fill-rule:nonzero;"/><path d="M400.53,103.249c-0,0.68 -0.17,1.164 -0.51,1.452c-0.34,0.287 -0.728,0.431 -1.164,0.431l-15.431,0c0,1.308 0.131,2.485 0.392,3.531c0.262,1.046 0.698,1.944 1.308,2.694c0.61,0.75 1.404,1.325 2.38,1.726c0.977,0.401 2.171,0.602 3.583,0.602c1.116,-0 2.11,-0.092 2.982,-0.275c0.872,-0.183 1.626,-0.388 2.262,-0.615c0.636,-0.226 1.16,-0.431 1.569,-0.614c0.41,-0.183 0.719,-0.275 0.929,-0.275c0.122,0 0.231,0.031 0.327,0.092c0.096,0.061 0.17,0.152 0.222,0.274c0.052,0.122 0.091,0.292 0.118,0.51c0.026,0.218 0.039,0.484 0.039,0.798c-0,0.227 -0.009,0.423 -0.026,0.588c-0.018,0.166 -0.04,0.314 -0.066,0.445c-0.026,0.131 -0.069,0.248 -0.13,0.353c-0.061,0.105 -0.14,0.205 -0.236,0.301c-0.096,0.096 -0.379,0.253 -0.85,0.471c-0.471,0.218 -1.081,0.431 -1.831,0.64c-0.749,0.21 -1.617,0.397 -2.602,0.563c-0.985,0.165 -2.036,0.248 -3.151,0.248c-1.936,0 -3.631,-0.27 -5.087,-0.811c-1.456,-0.54 -2.681,-1.342 -3.675,-2.406c-0.994,-1.063 -1.744,-2.397 -2.249,-4.001c-0.506,-1.604 -0.759,-3.47 -0.759,-5.597c0,-2.023 0.262,-3.84 0.785,-5.453c0.523,-1.613 1.277,-2.982 2.262,-4.106c0.985,-1.125 2.175,-1.988 3.57,-2.59c1.395,-0.601 2.956,-0.902 4.682,-0.902c1.848,0 3.422,0.297 4.721,0.889c1.299,0.593 2.366,1.391 3.203,2.393c0.837,1.003 1.452,2.18 1.844,3.531c0.393,1.351 0.589,2.794 0.589,4.329l-0,0.784Zm-4.342,-1.281c0.052,-2.267 -0.449,-4.045 -1.504,-5.336c-1.055,-1.29 -2.619,-1.935 -4.694,-1.935c-1.064,-0 -1.997,0.2 -2.799,0.601c-0.802,0.401 -1.473,0.933 -2.014,1.596c-0.54,0.662 -0.959,1.434 -1.255,2.314c-0.296,0.881 -0.462,1.801 -0.497,2.76l12.763,-0Z" style="fill:#f5f5f5;fill-rule:nonzero;"/><path d="M429.401,116.038c0,0.14 -0.03,0.262 -0.091,0.367c-0.061,0.104 -0.166,0.187 -0.314,0.248c-0.148,0.061 -0.344,0.109 -0.588,0.144c-0.245,0.035 -0.541,0.052 -0.89,0.052c-0.366,0 -0.671,-0.017 -0.915,-0.052c-0.244,-0.035 -0.445,-0.083 -0.602,-0.144c-0.157,-0.061 -0.27,-0.144 -0.34,-0.248c-0.069,-0.105 -0.104,-0.227 -0.104,-0.367l-0,-3.112c-1.238,1.343 -2.524,2.389 -3.858,3.139c-1.334,0.749 -2.794,1.124 -4.381,1.124c-1.726,0 -3.199,-0.335 -4.42,-1.007c-1.22,-0.671 -2.21,-1.578 -2.968,-2.72c-0.759,-1.142 -1.312,-2.484 -1.661,-4.027c-0.349,-1.543 -0.523,-3.169 -0.523,-4.878c0,-2.023 0.218,-3.849 0.654,-5.479c0.436,-1.631 1.081,-3.021 1.935,-4.172c0.855,-1.151 1.914,-2.035 3.178,-2.654c1.264,-0.619 2.724,-0.929 4.381,-0.929c1.377,0 2.637,0.301 3.779,0.902c1.142,0.602 2.271,1.487 3.387,2.655l-0,-13.678c-0,-0.122 0.03,-0.24 0.091,-0.353c0.061,-0.114 0.179,-0.201 0.353,-0.262c0.175,-0.061 0.397,-0.113 0.667,-0.157c0.271,-0.044 0.615,-0.065 1.033,-0.065c0.436,-0 0.794,0.021 1.073,0.065c0.279,0.044 0.497,0.096 0.654,0.157c0.157,0.061 0.274,0.148 0.353,0.262c0.078,0.113 0.117,0.231 0.117,0.353l0,34.836Zm-4.341,-16.555c-1.168,-1.447 -2.297,-2.55 -3.387,-3.308c-1.09,-0.759 -2.228,-1.138 -3.413,-1.138c-1.099,-0 -2.031,0.261 -2.799,0.785c-0.767,0.523 -1.39,1.211 -1.87,2.066c-0.479,0.854 -0.828,1.822 -1.046,2.903c-0.218,1.081 -0.327,2.179 -0.327,3.295c0,1.186 0.092,2.345 0.275,3.479c0.183,1.133 0.501,2.14 0.955,3.02c0.453,0.881 1.054,1.587 1.804,2.119c0.75,0.532 1.691,0.797 2.825,0.797c0.575,0 1.129,-0.078 1.661,-0.235c0.531,-0.157 1.076,-0.418 1.634,-0.785c0.558,-0.366 1.142,-0.841 1.752,-1.425c0.611,-0.584 1.256,-1.303 1.936,-2.158l-0,-9.415Z" style="fill:#f5f5f5;fill-rule:nonzero;"/></svg>