<?xml version="1.0" encoding="UTF-8" standalone="no"?>
<!DOCTYPE svg PUBLIC "-//W3C//DTD SVG 1.1//EN" "http://www.w3.org/Graphics/SVG/1.1/DTD/svg11.dtd">
<svg width="100%" height="100%" viewBox="0 0 606 127" version="1.1" xmlns="http://www.w3.org/2000/svg" xmlns:xlink="http://www.w3.org/1999/xlink" xml:space="preserve" xmlns:serif="http://www.serif.com/" style="fill-rule:evenodd;clip-rule:evenodd;stroke-linejoin:round;stroke-miterlimit:2;">
    <g transform="matrix(1,0,0,1,-25282.9,-11369.3)">
        <g transform="matrix(1,0,0,0.838068,25083.9,11280.9)">
            <g transform="matrix(0.23272,0,0,0.277686,118.371,-71.1298)">
                <g transform="matrix(375.34,0,0,375.34,2954.53,890.985)">
                </g>
                <text x="341.775px" y="890.985px" style="font-family:'Calibri-Bold', 'Calibri', sans-serif;font-weight:700;font-size:375.34px;fill:rgb(245,245,245);">V<tspan x="582.484px 693.436px 845.625px 994.515px 1214.7px 1435.25px 1603.75px 1824.3px 1927.92px 2274.74px 2494.92px 2663.42px 2774.38px " y="890.985px 890.985px 890.985px 890.985px 890.985px 890.985px 890.985px 890.985px 890.985px 890.985px 890.985px 890.985px 890.985px ">irtuoso Musik</tspan></text>
            </g>
        </g>
        <g transform="matrix(1,0,0,0.838068,25083.9,11280.9)">
            <g transform="matrix(0.0847183,0,0,0.101088,180.547,154.615)">
                <g transform="matrix(632.247,0,0,632.247,5342.56,890.985)">
                </g>
                <text x="341.775px" y="890.985px" style="font-family:'Calibri', sans-serif;font-size:632.247px;fill:rgb(245,245,245);">B<tspan x="710.973px 1068.44px 1305.51px 1475.89px 1788.6px 1956.82px 2315.52px 2638.41px 2806.64px 3108.23px 3622.21px 3867.93px 4174.76px 4440.23px 4670.51px 5010.38px " y="890.985px 890.985px 890.985px 890.985px 890.985px 890.985px 890.985px 890.985px 890.985px 890.985px 890.985px 890.985px 890.985px 890.985px 890.985px 890.985px ">utik og værksted</tspan></text>
            </g>
        </g>
    </g>
</svg>
